<?xml version="1.0" encoding="utf-8"?>
<!-- Generator: Adobe Illustrator 16.0.0, SVG Export Plug-In . SVG Version: 6.00 Build 0)  -->
<!DOCTYPE svg PUBLIC "-//W3C//DTD SVG 1.1//EN" "http://www.w3.org/Graphics/SVG/1.1/DTD/svg11.dtd">
<svg version="1.1" id="A.S._WORDSMITHS_1_" xmlns="http://www.w3.org/2000/svg" xmlns:xlink="http://www.w3.org/1999/xlink" x="0px"
	 y="0px" width="200.263px" height="157.121px" viewBox="0 0 200.263 157.121" enable-background="new 0 0 200.263 157.121"
	 xml:space="preserve">
<g id="A.S._WORDSMITHS">
	<g>
		<path fill="#FFFFFF" d="M100.125,6.285l41.979,41.975h6.285L100.125,0L47.453,52.666h6.285L100.125,6.285z M94.269,105.666h-1.307
			v3.572h1.253c0.621,0,1.119-0.178,1.495-0.537c0.382-0.363,0.572-0.814,0.572-1.352C96.282,106.227,95.611,105.666,94.269,105.666
			z M200.263,107.01h-13.672v-8.352h-27.996l20.1-20.098L165.19,65.06c-1.447,0.028-4.166,0.115-5.896,0.388l13.113,13.113
			l-20.1,20.098h-34.842c-0.707-1.426-1.15-2.938-1.236-4.533c-0.719-13.084,13.453-32.463,50.652-32.463
			c0-0.06,1.09-5.613,1.09-5.613h1.09v-4.357H73.184v3.41h-9.37v0.947H11.081c0,0,18.18,25.957,52.732,25.957
			c16.778,0,18.264,6.475,18.264,12.061c0,1.32-0.234,2.895-0.849,4.592H47.941l-20.1-20.098l2.059-2.059
			c-0.949-0.423-2.377-1.16-3.96-2.325l-4.384,4.384l20.1,20.098H13.673v8.359H0l11.137,11.129l-11.019,11.01H37.79l0.086,0.029
			v-8.367h25.942l2.491,2.49h-8.543v4.098h-6.699l5.457,5.451l-5.399,5.396h18.459l0.042,0.014v-4.102h7.543l22.956,22.955
			l22.956-22.955h7.58v4.088l0.041-0.016h18.438l-5.393-5.389l5.449-5.447h-6.699v-4.094h-8.557l2.49-2.49h26.006v8.34l0.086-0.031
			h37.623l-11.004-11L200.263,107.01z M93.179,66.045c3.48-4.635,5.793-9.323,5.793-9.323l-0.149,19.097
			c-0.686,0.341-1.174,1.087-1.19,1.969c-0.021,1.195,0.829,2.188,1.922,2.25c0,0,2.068-0.063,2.029-2.268
			c-0.016-0.88-0.504-1.625-1.189-1.965l-0.131-19.074c0,0,2.313,4.686,5.793,9.313c3.268,4.346,7.793,8.429,7.793,8.429
			s-1.893,5.225-2.959,11.145c-0.852,4.732-0.691,10.203-0.691,10.203l-21.19,0.051c0,0,0.166-5.484-0.679-10.223
			c-1.057-5.932-2.94-11.163-2.94-11.163S89.911,70.396,93.179,66.045z M113.425,109.758c0,2-0.621,3.598-1.867,4.791
			c-1.244,1.193-2.9,1.791-4.971,1.791h-4.549v-12.842h4.549C111.146,103.498,113.425,105.586,113.425,109.758z M87.366,130.123
			c-0.072-0.098-0.17-0.189-0.294-0.273c-0.123-0.082-0.271-0.164-0.44-0.242c-0.17-0.076-0.354-0.156-0.551-0.236
			c-0.501-0.209-0.874-0.465-1.12-0.766s-0.369-0.664-0.369-1.092c0-0.334,0.066-0.621,0.201-0.861
			c0.134-0.24,0.316-0.439,0.548-0.594s0.499-0.27,0.804-0.342c0.304-0.074,0.626-0.109,0.967-0.109c0.334,0,0.63,0.02,0.888,0.061
			c0.258,0.039,0.496,0.102,0.714,0.186v1.338c-0.107-0.074-0.225-0.141-0.352-0.197s-0.257-0.104-0.392-0.141
			c-0.134-0.037-0.268-0.064-0.4-0.082c-0.133-0.02-0.259-0.027-0.378-0.027c-0.164,0-0.313,0.016-0.447,0.047
			c-0.135,0.031-0.248,0.074-0.341,0.131c-0.092,0.059-0.164,0.125-0.215,0.205c-0.05,0.078-0.075,0.168-0.075,0.266
			c0,0.107,0.027,0.203,0.085,0.289c0.057,0.086,0.137,0.166,0.241,0.242s0.231,0.15,0.381,0.223
			c0.148,0.074,0.317,0.148,0.505,0.227c0.257,0.107,0.487,0.221,0.691,0.342c0.205,0.121,0.38,0.258,0.526,0.41
			s0.258,0.326,0.336,0.521c0.077,0.195,0.116,0.424,0.116,0.684c0,0.357-0.068,0.658-0.204,0.9
			c-0.136,0.244-0.319,0.441-0.553,0.592c-0.232,0.15-0.503,0.258-0.812,0.324c-0.31,0.066-0.636,0.098-0.979,0.098
			c-0.352,0-0.687-0.029-1.005-0.088c-0.317-0.061-0.593-0.15-0.825-0.27v-1.432c0.26,0.217,0.541,0.381,0.846,0.49
			c0.305,0.107,0.611,0.162,0.922,0.162c0.182,0,0.341-0.016,0.477-0.049s0.249-0.078,0.34-0.137
			c0.092-0.059,0.159-0.127,0.204-0.205c0.045-0.08,0.067-0.166,0.067-0.258C87.474,130.334,87.438,130.223,87.366,130.123z
			 M84.565,123.309l0.656-2.49h7.746v2.49H84.565z M27.723,116.34l-0.913-2.857h-4.564l-0.904,2.857h-3.133l4.672-12.842h3.429
			l4.565,12.842H27.723z M34.683,116.146c-0.313,0.277-0.721,0.418-1.222,0.418c-0.466,0-0.854-0.145-1.163-0.432
			c-0.311-0.285-0.466-0.639-0.466-1.057c0-0.43,0.159-0.781,0.479-1.055c0.319-0.275,0.718-0.412,1.195-0.412
			c0.483,0,0.879,0.139,1.186,0.416c0.308,0.277,0.461,0.629,0.461,1.051C35.152,115.514,34.996,115.869,34.683,116.146z
			 M45.201,114.535c-0.271,0.486-0.641,0.881-1.105,1.182c-0.466,0.303-1.008,0.52-1.625,0.65s-1.27,0.197-1.956,0.197
			c-0.704,0-1.374-0.061-2.01-0.18c-0.635-0.119-1.186-0.299-1.651-0.537v-2.865c0.52,0.436,1.083,0.762,1.692,0.98
			c0.608,0.217,1.223,0.326,1.844,0.326c0.363,0,0.682-0.033,0.953-0.098c0.271-0.066,0.498-0.158,0.681-0.273
			c0.182-0.117,0.317-0.254,0.407-0.412c0.089-0.158,0.134-0.33,0.134-0.516c0-0.25-0.071-0.475-0.215-0.672
			c-0.143-0.195-0.339-0.379-0.586-0.545c-0.248-0.168-0.542-0.328-0.882-0.484c-0.34-0.154-0.707-0.313-1.102-0.475
			c-1.002-0.418-1.75-0.928-2.242-1.531s-0.738-1.332-0.738-2.186c0-0.668,0.135-1.242,0.403-1.723s0.634-0.877,1.096-1.186
			c0.463-0.311,0.999-0.539,1.607-0.686s1.253-0.221,1.934-0.221c0.668,0,1.261,0.041,1.776,0.121
			c0.517,0.082,0.992,0.205,1.428,0.373v2.676c-0.215-0.148-0.449-0.279-0.702-0.393c-0.254-0.113-0.515-0.207-0.783-0.283
			c-0.269-0.074-0.536-0.129-0.802-0.166c-0.266-0.035-0.518-0.053-0.756-0.053c-0.328,0-0.627,0.031-0.896,0.094
			s-0.495,0.15-0.681,0.264c-0.185,0.113-0.328,0.25-0.429,0.408c-0.102,0.158-0.152,0.336-0.152,0.533
			c0,0.215,0.057,0.406,0.17,0.576s0.274,0.332,0.483,0.484s0.462,0.301,0.761,0.447c0.298,0.146,0.636,0.297,1.012,0.453
			c0.513,0.215,0.974,0.443,1.383,0.684c0.408,0.242,0.76,0.516,1.052,0.82s0.516,0.652,0.672,1.043
			c0.154,0.391,0.232,0.846,0.232,1.365C45.608,113.447,45.473,114.049,45.201,114.535z M49.928,116.146
			c-0.313,0.277-0.721,0.418-1.223,0.418c-0.465,0-0.854-0.145-1.163-0.432c-0.311-0.285-0.466-0.639-0.466-1.057
			c0-0.43,0.16-0.781,0.479-1.055c0.318-0.275,0.717-0.412,1.194-0.412c0.483,0,0.879,0.139,1.187,0.416
			c0.307,0.277,0.461,0.629,0.461,1.051C50.397,115.514,50.24,115.869,49.928,116.146z M67.942,116.34l-2.131-8.238
			c-0.113-0.43-0.182-0.91-0.206-1.441H65.57c-0.054,0.584-0.132,1.064-0.232,1.441l-2.185,8.238h-3.339l-3.375-12.842h3.16
			l1.808,8.553c0.078,0.363,0.135,0.854,0.17,1.469h0.055c0.023-0.461,0.11-0.961,0.259-1.504l2.328-8.518h3.097l2.104,8.625
			c0.078,0.316,0.146,0.775,0.206,1.379h0.036c0.023-0.473,0.086-0.949,0.188-1.434l1.772-8.57h2.918l-3.393,12.842H67.942z
			 M75.835,123.309h-2.93l1.373-2.49h2.861L75.835,123.309z M77.1,114.768c-1.158-1.195-1.736-2.756-1.736-4.678
			c0-2.029,0.588-3.672,1.764-4.926c1.175-1.254,2.732-1.881,4.672-1.881c1.832,0,3.313,0.602,4.445,1.801
			c1.131,1.199,1.695,2.781,1.695,4.746c0,2.018-0.586,3.645-1.759,4.881c-1.172,1.234-2.701,1.854-4.588,1.854
			C79.755,116.564,78.258,115.965,77.1,114.768z M80.035,125.715h3.701v1.176h-2.255v1.428h2.099v1.174h-2.099v1.469h2.402v1.172
			h-3.849V125.715z M92.968,143.68l-9.513-9.514h9.513V143.68z M94.558,126.891h-1.83v5.242h-1.45v-5.242h-1.821v-1.176h5.102
			V126.891z M96.524,132.037c-0.156,0.139-0.36,0.207-0.61,0.207c-0.233,0-0.427-0.07-0.582-0.213
			c-0.155-0.145-0.233-0.32-0.233-0.529c0-0.215,0.08-0.391,0.24-0.527c0.159-0.139,0.358-0.207,0.598-0.207
			c0.241,0,0.438,0.07,0.593,0.209c0.153,0.139,0.23,0.314,0.23,0.525C96.76,131.721,96.681,131.898,96.524,132.037z M97.519,116.34
			l-1.997-3.305c-0.148-0.25-0.292-0.475-0.429-0.672c-0.138-0.197-0.276-0.365-0.417-0.506c-0.14-0.141-0.286-0.248-0.438-0.322
			s-0.317-0.111-0.497-0.111h-0.778v4.916H90.07v-12.842h4.583c3.115,0,4.673,1.164,4.673,3.492c0,0.449-0.068,0.861-0.206,1.242
			c-0.137,0.377-0.331,0.719-0.582,1.023c-0.25,0.305-0.553,0.568-0.908,0.789s-0.75,0.393-1.186,0.52v0.035
			c0.19,0.061,0.376,0.156,0.555,0.291s0.352,0.291,0.52,0.471c0.167,0.178,0.326,0.371,0.479,0.576
			c0.152,0.207,0.291,0.408,0.416,0.605l2.426,3.797H97.519z M104.413,130.961v1.172h-4.225v-1.102l1.838-1.758
			c0.371-0.355,0.631-0.652,0.781-0.895c0.15-0.238,0.227-0.492,0.227-0.758c0-0.592-0.318-0.887-0.953-0.887
			c-0.553,0-1.08,0.219-1.584,0.658v-1.244c0.557-0.361,1.188-0.541,1.889-0.541c0.656,0,1.168,0.164,1.537,0.494
			c0.367,0.33,0.553,0.775,0.553,1.336c0,0.75-0.449,1.523-1.348,2.322l-1.32,1.174v0.027H104.413z M109.329,131.377
			c-0.408,0.578-0.992,0.867-1.752,0.867c-1.529,0-2.293-1.072-2.293-3.217c0-1.113,0.207-1.963,0.621-2.545
			c0.412-0.584,1.012-0.875,1.797-0.875c1.49,0,2.236,1.09,2.236,3.271C109.938,129.965,109.735,130.797,109.329,131.377z
			 M115.063,132.133h-4.059v-1.119h1.328v-3.996l-1.365,0.295v-1.146l2.775-0.559v5.406h1.32V132.133z M119.81,131.752
			c-0.42,0.328-1.004,0.492-1.756,0.492c-0.65,0-1.176-0.16-1.574-0.48s-0.598-0.744-0.598-1.273c0-0.766,0.432-1.33,1.295-1.691
			v-0.023c-0.734-0.301-1.102-0.789-1.102-1.463c0-0.496,0.197-0.904,0.59-1.225c0.395-0.32,0.902-0.48,1.527-0.48
			c0.635,0,1.143,0.148,1.521,0.449c0.379,0.299,0.568,0.688,0.568,1.162c0,0.701-0.406,1.217-1.219,1.549v0.018
			c0.436,0.129,0.773,0.34,1.014,0.633c0.24,0.295,0.361,0.625,0.361,0.992C120.438,130.977,120.229,131.424,119.81,131.752z
			 M122.206,115.717c-0.465,0.303-1.006,0.52-1.625,0.65c-0.617,0.131-1.27,0.197-1.955,0.197c-0.705,0-1.375-0.061-2.01-0.18
			s-1.186-0.299-1.652-0.537v-2.865c0.52,0.436,1.084,0.762,1.693,0.98c0.607,0.217,1.223,0.326,1.844,0.326
			c0.363,0,0.682-0.033,0.953-0.098c0.271-0.066,0.498-0.158,0.68-0.273c0.182-0.117,0.318-0.254,0.408-0.412
			s0.133-0.33,0.133-0.516c0-0.25-0.07-0.475-0.215-0.672c-0.143-0.195-0.338-0.379-0.586-0.545
			c-0.248-0.168-0.541-0.328-0.881-0.484c-0.34-0.154-0.707-0.313-1.102-0.475c-1.002-0.418-1.75-0.928-2.242-1.531
			s-0.738-1.332-0.738-2.186c0-0.668,0.135-1.242,0.402-1.723c0.27-0.48,0.635-0.877,1.098-1.186
			c0.461-0.311,0.998-0.539,1.605-0.686c0.609-0.146,1.254-0.221,1.934-0.221c0.668,0,1.262,0.041,1.777,0.121
			c0.516,0.082,0.992,0.205,1.428,0.373v2.676c-0.215-0.148-0.449-0.279-0.703-0.393s-0.514-0.207-0.783-0.283
			c-0.268-0.074-0.535-0.129-0.801-0.166c-0.266-0.035-0.518-0.053-0.756-0.053c-0.328,0-0.627,0.031-0.896,0.094
			c-0.268,0.063-0.494,0.15-0.68,0.264s-0.328,0.25-0.43,0.408s-0.152,0.336-0.152,0.533c0,0.215,0.057,0.406,0.17,0.576
			s0.275,0.332,0.484,0.484s0.461,0.301,0.76,0.447s0.637,0.297,1.012,0.453c0.514,0.215,0.975,0.443,1.383,0.684
			c0.41,0.242,0.76,0.516,1.053,0.82c0.291,0.305,0.516,0.652,0.672,1.043c0.154,0.391,0.232,0.846,0.232,1.365
			c0,0.717-0.137,1.318-0.408,1.805S122.673,115.416,122.206,115.717z M124.384,123.309l-1.383-2.49h2.887l1.471,2.49H124.384z
			 M140.458,116.34h-2.855v-7.684c0-0.83,0.037-1.746,0.107-2.748h-0.07c-0.15,0.787-0.285,1.354-0.404,1.701l-3.008,8.73h-2.363
			l-3.061-8.641c-0.084-0.234-0.219-0.83-0.402-1.791h-0.082c0.078,1.266,0.117,2.375,0.117,3.33v7.102h-2.605v-12.842h4.234
			l2.623,7.611c0.209,0.609,0.361,1.223,0.457,1.836h0.053c0.162-0.709,0.332-1.328,0.512-1.854l2.621-7.594h4.127V116.34z
			 M147.343,105.736h-1.074v8.365h1.074v2.238h-5.041v-2.238h1.074v-8.365h-1.074v-2.238h5.041V105.736z M158.2,105.854h-3.66
			v10.486h-2.9v-10.486h-3.645v-2.355H158.2V105.854z M171.036,116.34h-2.9v-5.23h-5.316v5.23h-2.891v-12.842h2.891v5.123h5.316
			v-5.123h2.9V116.34z M181.729,114.535c-0.271,0.486-0.641,0.881-1.105,1.182c-0.465,0.303-1.008,0.52-1.625,0.65
			s-1.27,0.197-1.955,0.197c-0.705,0-1.375-0.061-2.01-0.18c-0.637-0.119-1.186-0.299-1.652-0.537v-2.865
			c0.52,0.436,1.084,0.762,1.691,0.98c0.609,0.217,1.225,0.326,1.846,0.326c0.363,0,0.682-0.033,0.953-0.098
			c0.271-0.066,0.498-0.158,0.68-0.273c0.182-0.117,0.318-0.254,0.408-0.412c0.088-0.158,0.133-0.33,0.133-0.516
			c0-0.25-0.07-0.475-0.215-0.672c-0.143-0.195-0.338-0.379-0.586-0.545c-0.248-0.168-0.541-0.328-0.881-0.484
			c-0.342-0.154-0.709-0.313-1.102-0.475c-1.002-0.418-1.75-0.928-2.242-1.531s-0.738-1.332-0.738-2.186
			c0-0.668,0.133-1.242,0.402-1.723c0.268-0.48,0.635-0.877,1.096-1.186c0.463-0.311,0.998-0.539,1.607-0.686
			s1.254-0.221,1.934-0.221c0.668,0,1.262,0.041,1.777,0.121c0.516,0.082,0.992,0.205,1.428,0.373v2.676
			c-0.215-0.148-0.449-0.279-0.703-0.393s-0.514-0.207-0.783-0.283c-0.268-0.074-0.535-0.129-0.801-0.166
			c-0.266-0.035-0.518-0.053-0.756-0.053c-0.328,0-0.627,0.031-0.896,0.094c-0.268,0.063-0.494,0.15-0.68,0.264
			s-0.328,0.25-0.43,0.408s-0.152,0.336-0.152,0.533c0,0.215,0.057,0.406,0.17,0.576s0.275,0.332,0.484,0.484
			c0.207,0.152,0.461,0.301,0.76,0.447s0.637,0.297,1.012,0.453c0.514,0.215,0.975,0.443,1.383,0.684
			c0.408,0.242,0.76,0.516,1.053,0.82c0.291,0.305,0.516,0.652,0.672,1.043c0.154,0.391,0.232,0.846,0.232,1.365
			C182.138,113.447,182.001,114.049,181.729,114.535z M104.931,105.854v8.141h1.432c1.254,0,2.236-0.377,2.949-1.129
			s1.07-1.775,1.07-3.072c0-1.223-0.354-2.186-1.061-2.887s-1.699-1.053-2.977-1.053H104.931z M118.183,128.256
			c0.514-0.211,0.77-0.518,0.77-0.916c0-0.219-0.068-0.393-0.207-0.521c-0.139-0.131-0.324-0.195-0.553-0.195
			c-0.225,0-0.41,0.068-0.559,0.203c-0.146,0.137-0.221,0.311-0.221,0.521C117.413,127.748,117.669,128.051,118.183,128.256z
			 M107.64,126.686c-0.611,0-0.918,0.768-0.918,2.305c0,1.447,0.299,2.172,0.898,2.172c0.586,0,0.879-0.746,0.879-2.238
			S108.212,126.686,107.64,126.686z M118.12,129.336c-0.6,0.236-0.9,0.596-0.9,1.082c0,0.232,0.092,0.426,0.275,0.578
			s0.406,0.229,0.67,0.229c0.283,0,0.512-0.074,0.684-0.225c0.174-0.148,0.26-0.346,0.26-0.59
			C119.108,129.92,118.78,129.563,118.12,129.336z M84.02,112.986c0.585-0.719,0.877-1.719,0.877-2.996
			c0-1.33-0.283-2.367-0.851-3.105c-0.566-0.74-1.343-1.111-2.327-1.111c-1.015,0-1.82,0.381-2.417,1.141
			c-0.597,0.762-0.896,1.77-0.896,3.023c0,1.271,0.299,2.277,0.896,3.018s1.379,1.109,2.346,1.109
			C82.644,114.064,83.435,113.705,84.02,112.986z M24.555,105.791h-0.072c-0.03,0.377-0.104,0.75-0.224,1.119l-1.396,4.352h3.285
			l-1.379-4.316C24.668,106.625,24.596,106.238,24.555,105.791z"/>
	</g>
</g>
</svg>
