<svg version="1" xmlns="http://www.w3.org/2000/svg" width="1422.667" height="1422.667" viewBox="0 0 1067.000000 1067.000000"><path d="M393.2 255C316.1 332.1 253 395.3 253 395.5c0 .2 7.5.3 16.7.3l16.6-.1 123.6-123.4 123.5-123.4 111.7 111.7 111.7 111.7h16.1c8.9 0 16.3-.2 16.6-.4.2-.3-57.3-58.2-127.9-128.8L533.3 114.8 393.2 255z"/><path d="M389.9 392.4c-.1 1.1-.1 5.1-.1 8.8l.1 6.8-3.2.1c-1.8 0-13.1.1-25.2.2l-22 .2v5H199.3c-124.3 0-140 .2-139.3 1.5 2.9 5.2 20.9 25 34.7 38 57.2 54 132.4 89.5 204.6 96.6 3.4.3 7.3.8 8.7 1 1.4.2 9.9.6 19 .9 24.1.7 40.2 1.5 42.5 1.9 1.1.2 4.2.7 6.9 1 25.8 3.5 45.9 14.4 53.7 29.1 5.3 10 6.4 15.6 6.3 32 0 10-.5 14.4-2 18.9l-1.9 5.9h-86.8c-47.7-.1-87.5-.2-88.6-.2-1.4-.1-91.2-88.5-106-104.5l-2.4-2.6 5.1-5c2.9-2.8 5.2-5.3 5.2-5.5 0-.1-2.4-1.5-5.2-3-2.9-1.5-7.1-3.9-9.3-5.4-2.2-1.5-4.5-3-5.1-3.4-.7-.4-5.9 4-12.8 10.8-6.4 6.4-11.6 11.7-11.6 11.9 0 .2 23.9 24.3 53.1 53.5 29.2 29.2 52.7 53.1 52.3 53.2-.5 0-33.9.1-74.1.1l-73.3.1-.1 5.6v22.3L73 685H-.5l29.8 29.7 29.8 29.6-28.8 28.9c-15.8 15.9-29 29.1-29.2 29.3-.2.3 44.8.5 100.1.5h100.6l-.1-21.5c0-11.8.2-21.7.5-22 .3-.3 31.4-.6 69.2-.6H340l5.1 4.8c8.9 8.5 9.7 8-14.2 7.9-11.6-.1-21.6.2-22.2.6-.8.5-1.2 4.1-1.3 9.8-.1 4.9-.2 9.6-.3 10.3-.1 1-3.9 1.3-17.1 1.2-9.3 0-17 .3-17 .7 0 .4 6.1 6.7 13.5 14.1 7.4 7.4 13.5 13.8 13.5 14.3 0 .4-6 6.8-13.2 14.1-7.3 7.4-13.4 13.7-13.6 14.1-.1.4 21.8.7 48.8.7h49V830l4.8-.1c2.6 0 11.6-.1 20-.1H411l61.2 61.2 61.2 61.1 61.2-61.2 61.2-61.2h39.7l.1 10.1c0 5.6.4 10.5.8 10.9.8.9 97.6 1.1 97.6.3 0-.3-6.3-6.8-14-14.5l-14-14 14.2-14.2c7.9-7.9 13.8-14.4 13.3-14.4-.6-.1-8.4-.2-17.5-.3l-16.5-.1-.3-10.5c-.1-5.7-.7-10.7-1.1-11-.5-.3-10.7-.4-22.6-.4l-21.7.1 6.4-6.4 6.5-6.5 55.9.1c30.7 0 61.9.1 69.2.1H865v44h201.5l-29.4-29.4-29.4-29.4 27.9-28c15.3-15.3 28.7-28.8 29.6-29.8 1.6-1.9.9-1.9-34.8-1.8l-36.4.1v-44.4l-72.7-.1c-40.1 0-73.5-.1-74.3-.1-.8-.1 22.5-24.1 51.8-53.4l53.2-53.2-36.2-36.1-36.3-36.1-7 .3c-11.5.4-22.8 1.4-23.4 2-.3.2 15.1 16.1 34.2 35.2l34.7 34.7-53.4 53.4-53.4 53.4h-92c-50.5 0-92.4-.3-93.1-.7-1.6-1-3.8-6.7-5.6-14-.9-4.1-1.3-9.9-1.1-17.6 1.7-55.2 48.2-109.8 117.1-137.8 13.8-5.6 34.2-12.3 41.5-13.7.8-.2 3.5-.8 6-1.5 5.1-1.4 4.8-1.3 19-4 5.8-1 12.5-2.2 15-2.5 2.5-.3 5.6-.8 7-1 1.4-.2 5.4-.7 9-1 3.6-.4 8-.8 9.8-1 5.4-.7 27-1.7 36.4-1.8 9.7-.1 8.7.6 10.2-7.7 2.6-13.8 4.3-21 4.9-21.7.5-.4 1.8-.8 3-.8 2.1 0 2.2-.3 2.2-11.5v-11.5l-255.2-.1-255.3-.2-.1 2.2zm136.7 76.2l-.4 49.5-2.5 2.7c-3.1 3.2-4.2 7-3.3 11.5.9 4.3 2.6 6.4 6.8 8.1 3 1.3 3.8 1.3 7.4-.3 7.9-3.6 8.9-15.3 1.7-20.6-1.2-.9-1.5-9.9-1.8-50.8-.2-27.4-.2-49.7 0-49.5.2.2 3.1 5.2 6.6 11.3 16 28 31.6 48.4 55 71.4 9.8 9.6 10.1 10.1 9.1 12.8-2.6 6.7-10.5 35-11.8 42.3-.3 1.4-.9 4.1-1.4 6-.5 1.9-1.2 5.5-1.5 8-.3 2.5-.8 5.2-1 6-.2.8-.7 4.9-1 9-.4 4.1-.8 9.1-1 11-.2 1.9-.5 9-.6 15.7l-.2 12.3-17.6.1c-9.7 0-34.5.2-55.1.3-20.6.1-38 .1-38.6-.1-.7-.3-1.1-4.2-1.2-10.6-.1-12.7-1.2-27.9-2.7-37.7-2.3-15.5-6.8-34.6-12.8-53.8l-3.5-11.4 11.2-11.1c17.3-17.4 26.8-28.6 37.8-44.7 5.9-8.6 17.2-27.4 20.7-34.3.8-1.5 1.6-2.7 1.8-2.7.2 0 .2 22.3-.1 49.6zM236.5 666.8c2.9.8 3 1 3.1 7.6.1 4.7-.2 6.5-1 6.2-10-4.3-19.9-4.5-24.1-.6-5 4.7-2.3 8.8 9.3 14.2 10.8 5 14.6 7.9 17.2 13.3 1.6 3.2 2 5.5 1.6 9.4-1.2 12.3-9.3 18.2-25.6 18.6-7.5.2-13.2-.6-18-2.5-2.4-1-2.5-1.5-2.5-8 0-3.9.1-7 .2-7s2.5 1.2 5.5 2.7c4.2 2.1 6.8 2.7 12.5 2.7 6.2.1 7.5-.2 9.7-2.3 5.2-4.9 2.3-9.2-10.7-15.4-14-6.7-18-11.9-17.2-22.5.6-8 6-13.7 16-16.8 4.3-1.3 19-1.1 24 .4zm211.4.7c8.6 2.8 17.7 13.6 19.6 23.1.8 4 .7 13.6-.1 18.1-2.3 12.4-12.3 23.4-23.4 25.9-20 4.3-37.4-5.8-41.6-24.2-1-4.5-.7-15.6.6-20.5 5-19 25-29 44.9-22.4zm204.6-.7c2.9.8 3 1 3.2 7.6.1 4.8-.2 6.6-1 6.2-5.6-2.3-12.7-3.8-16.9-3.4-8.1.8-11.9 6.4-7.7 11.4.7.8 5.4 3.5 10.6 6 15 7.1 19.1 12.7 17.7 24.4-.7 6.1-4.5 10.7-11.3 13.8-4.9 2.3-6.8 2.6-16.1 2.6-8.2-.1-11.4-.5-14.5-2l-4-1.9v-6.8c0-3.7.1-6.7.2-6.7s2.4 1.1 5.1 2.5c5.6 2.8 15 4 19.8 2.4 2.9-.9 5.4-4.3 5.4-7.3 0-2.3-5.5-6.3-14-10.3-12.7-5.9-17-11.6-16.5-21.5.4-8.4 6.4-14.7 16.5-17.4 4.8-1.3 18.6-1.1 23.5.4zm311 0c2.9.8 3 1 3.3 7.6.3 6.3.1 6.8-1.5 6.1-1-.4-4-1.4-6.8-2.1-9.4-2.6-15.6-1.3-18.4 3.7-2.3 4.2.2 6.8 12.2 12.7 13.1 6.5 16.6 10.3 17.4 19 .9 10.3-4.8 17.7-15.8 20.5-9.1 2.4-27.1.8-29.6-2.6-.7-1-1-9.5-.4-13 0-.4 2.4.4 5.2 1.9 8.4 4.2 20.2 4 23.5-.4 3.7-4.8 0-9.1-12.6-15-12.2-5.6-17.1-11.8-16.5-20.8.5-9 6.2-15.2 16.2-17.9 5.1-1.3 18.9-1.2 23.8.3zm-823.6.7c.5.5 4 9.5 7.6 20 3.7 10.4 8.9 25.2 11.6 32.8 2.7 7.6 4.9 14 4.9 14.1 0 .1-3.7.1-8.2.1l-8.2-.1-2.3-7.6-2.3-7.7-12.1.1-12.1.1-1.3 3.1c-.8 1.7-2 5.1-2.7 7.6l-1.3 4.5h-8.1l-8.2.1 3.5-9.6c1.9-5.2 4-10.9 4.5-12.5.5-1.7 1.4-3.9 1.8-5 .5-1.1 3.8-10.1 7.4-20 3.5-9.9 6.7-18.7 7-19.5.5-1.2 2.5-1.5 9.1-1.5 4.6 0 8.8.4 9.4 1zm176.7-.6c.6 0 1.5 2 1.9 4.3 1.2 6.5 1.1 6.4 4.4 21.8 3.1 14.4 4.3 20.4 4.4 22.7.1 3.1 1.4.8 3-5.5.9-3.7 4-15 6.8-25.2l5.1-18.5h7.8c4.4 0 8.1.3 8.3.5.3.3 2.6 9.3 5.2 20s4.8 19.9 5 20.5c.1.5.6 2.9 1 5.2.7 4.2 2.5 6.1 2.3 2.5-.1-.9.8-6 2-11.2 1.1-5.2 2.3-10.6 2.5-12 2.1-11.1 5.2-24.6 5.9-25.1 1.3-.9 14.3-.3 14.1.7-.1.5-.9 3.8-1.8 7.4l-2 8c-.4 1.8-9.8 37-12.2 45.5l-1.7 6.1-8.3-.1h-8.4l-.9-3.5c-2.1-8.2-9.2-35.7-9.6-37.5-.3-1.1-.9-4-1.3-6.5-.5-2.5-1-3.6-1.1-2.5-.1 1.1-.3 2.7-.5 3.5-1.2 5-6.7 26-7.6 28.6-.5 1.7-1.1 4-1.4 5-.2 1-1 4.4-1.8 7.4l-1.4 5.5h-7.4c-4.1.1-8.1-.1-9-.3-1-.2-2.2-2.8-3.2-7-1-3.7-1.9-7.4-2.1-8.2-.2-.8-1.8-6.7-3.4-13-1.6-6.3-4.6-17.6-6.6-25.2-2-7.5-3.6-13.8-3.6-14 0-.3 12.7-.3 15.6.1zm202.8 2.5c4.4 2.1 5.8 3.5 7.5 7.1 2.6 5.5 2.6 10.7.2 16-2 4.5-7 9.2-10.7 10.1-2.3.6-3.4 2.4-1.5 2.4 1.8 0 7.4 6.8 13.6 16.5 9 14.2 9 13.2-.2 13-4.3-.2-8.1-.3-8.5-.4-.4-.1-3.3-4.5-6.5-9.9-7.3-12.2-9.8-14.9-14.5-15.8l-3.7-.6-.3 13.3-.3 13.4h-7.2c-5.9 0-7.3-.3-7.4-1.5-.5-9.6-.3-63.9.3-65.1.6-1.3 3-1.5 17.3-1.3 15.6.2 16.8.3 21.9 2.8zm61.6-1.5c6.9 1.9 10.5 3.8 14.5 7.8 5.6 5.6 7.7 11.2 8.1 21.8.4 9.9-1.2 16.4-5.7 22.9-2.8 4.2-12.4 11.3-16.2 12-1.5.2-3.2.8-3.8 1.2-1.2.7-31.5 1.4-33.4.7-1.1-.4-1.4-65.1-.3-66.9.9-1.4 31-1 36.8.5zm111.4-.8c.9.9 12.5 34.3 14.9 42.9 1.2 4.1 2.3 6.6 2.5 5.5.4-2 7.7-24.3 9.2-28 .5-1.1 2-5.6 3.5-10 3.9-11.8 2.8-11 14.9-11H748v68l-6.7-.1c-3.8-.1-7.2-.2-7.6-.3-.4 0-.7-11.8-.6-26.2 0-14.3-.2-26.3-.5-26.6-.3-.4-.6.3-.6 1.4 0 1-3.4 11.8-7.6 23.9-4.2 12-7.9 22.9-8.1 24.2-.7 3-2.8 3.9-8.8 3.8l-5-.1-3.8-11c-2.1-6.1-4.2-11.9-4.7-13-1.2-2.7-8.1-22.6-8.5-24.5-.2-.8-.4-2.1-.4-2.8-.1-.6-.4-1.2-.8-1.2-.5 0-.7 11.8-.5 26.3l.3 26.2-5.8-.1c-3.2-.1-6.3-.2-6.9-.3-.7-.1-1.1-10.4-1.1-33.9l-.1-33.7H681c6 0 11.1.3 11.4.6zm92.2 5.2c.1 5.6.1 5.7-2.7 5.7H779v45h3c2.9 0 2.9 0 2.7 5.7l-.2 5.8h-26l-.3-5.7c-.3-5.5-.2-5.7 2.5-6l2.8-.3.2-22.3.1-22.2h-2.9c-2.9 0-2.9-.1-2.9-5.8v-5.7h26.5l.1 5.8zm57.6-4.3c.2.8.4 3.5.3 6v4.5l-7 .2c-3.9 0-8.2.2-9.7.2l-2.8.1v27.5c0 15.1-.3 27.6-.7 27.6-3.9.6-13.5.3-14-.4-.3-.6-.6-13.1-.6-27.8 0-18.6-.4-26.9-1.1-27-.6 0-4.9-.1-9.6-.2l-8.4-.2-.1-5.5c-.1-3 .2-5.7.6-6 .4-.3 12.4-.5 26.8-.5 22.3 0 26 .2 26.3 1.5zm24.1-1.1c.4 0 .7 6.1.7 13.5v13.4l14.3-.2 14.2-.1.1-12.5c0-6.9.3-13 .7-13.6.3-.6 3.6-1 7.4-.9l6.8.2.2 33.7c.2 25.5-.1 33.6-1 33.7-5.2.6-13.7.2-13.8-.6 0-.5-.1-6.7-.1-13.8-.1-11.6-.3-12.7-2-12.8h-24.3l-2.4.1-.3 13.7-.3 13.8H852v-33.6c0-18.4.2-33.8.4-34 .4-.4 11.7-.4 13.9 0zm-682.4 55.2c2.5 1.6 3.6 4.8 2.7 8.4-1.1 4.2-7.9 6.4-12.6 4-3.1-1.6-4-3.3-4-7.6 0-5.6 8.1-8.3 13.9-4.8zm81.7.6c2.5 2.3 3.1 6.1 1.4 9.2-1.1 2.2-5.8 4.2-8.5 3.7-1.1-.3-2.3-.5-2.7-.5-1.8-.2-4.8-4.7-4.8-7.1 0-6.9 9.1-10.2 14.6-5.3zm225.2 36.2l4.2.1v12.6l-22 .1h-22.1l.6-3.1c.4-1.7 1.1-4.5 1.6-6.3l1-3.2 9.7-.3c5.3-.2 12.6-.2 16.2-.1 3.6.1 8.4.2 10.8.2zm181.1 2.3c.7 1.2 2.4 4.1 3.7 6.4l2.4 4.3-7.7-.2-7.7-.2-3.3-5.9c-1.8-3.2-3.1-6.1-2.9-6.5.2-.3 3.5-.5 7.3-.3 5.7.3 7.1.7 8.2 2.4zM410 759.5c0 .3-1.4 3.1-3.2 6.3l-3.1 5.9h-6.6c-3.6 0-6.9-.1-7.4-.4-.4-.2.7-3.1 2.5-6.4l3.3-5.9h7.2c4 0 7.3.2 7.3.5zm34.3 25.4c1.2.1 1.7.9 1.7 3.1v3l-5.9-.2c-5.3-.3-6-.1-6.3 1.7-.9 4.5.4 6.1 4.9 5.9 5.2-.2 6.6.7 6.1 3.7-.3 2.1-.8 2.4-4.8 2.4-5.7 0-6.5.6-6.4 4.7l.1 3.3 6.7.3c6.7.3 6.7.3 6.4 3l-.3 2.7-9.7.2c-6.8.1-9.8-.2-9.9-1-.1-.7-.2-8.2-.3-16.7l-.1-15.5 4.5-.5c2.5-.3 6.1-.4 8-.3 1.9.1 4.3.2 5.3.2zm27.4.4c1.6 1 .9 6.3-.8 5.8-8.6-2.2-14.5-.1-11.6 4.2.7 1.1 2.1 2.1 3 2.3 3.5.5 10.1 5.9 11.1 9.1 2 7.3-3.4 12.3-13.1 12.3-6.8 0-9-.8-9.5-3.5-.8-3.9.3-4.6 4.9-3 3.2 1.1 4.9 1.2 7.3.4 4.9-1.8 3.7-4.8-3.4-8.6-7.1-3.7-8.6-5.5-8.6-10.2.1-6.6 5.2-10.2 14.1-9.7 3.1.2 6.1.6 6.6.9zm29.5-.4c2.3.1 2.6.5 2.4 2.8-.3 2.4-.8 2.8-3.7 3-1.9.1-4.1.2-4.9.2-1.3.1-1.5 2.3-1.4 14.2l.1 14-3.6-.3-3.6-.3-.2-13.4c-.1-7.3-.4-13.5-.6-13.7-.2-.2-2.4-.5-4.8-.7-4-.2-4.4-.4-4.4-2.7 0-2.3.4-2.5 5.5-3 3-.3 8-.4 11-.3 3 .1 6.7.2 8.2.2zm51.2 1.4c1.4 1 2.8 3 3.2 4.5.3 1.5.7 3.2.9 3.8.6 2-3.5 7.7-9.3 13.2l-5.7 5.3 7.3-.3 7.3-.3-.3 3-.3 3-10.7.2-10.8.3v-3.1c0-2.4 1.4-4.4 7.5-10.4 5.9-5.9 7.5-8 7.5-10.3 0-5-3.8-6.3-11.5-3.7-1.8.5-2.1.2-2.1-1.9 0-5 11.1-7.1 17-3.3zm29.3 1.5c6 7 4.3 26.1-2.7 29.7-6.8 3.5-13.9.9-16.5-6-2.2-5.5-1.7-16.3.9-21.3 3.4-6.5 13.6-7.8 18.3-2.4zm24 12l-.2 13.2h3.7c3.4 0 3.7.2 3.6 2.9l-.1 2.9-10.7.1h-10.7l-.1-2.9c-.1-2.8.2-3 3.7-3h3.7l-.1-10.8c-.1-5.9-.6-10.6-1.1-10.6-.5.1-2.1.4-3.6.8-2.6.6-2.8.4-2.8-2.2 0-2.8.3-3 6.8-4.4 4.7-1 6.9-1.1 7.4-.4.3.6.5 7.1.5 14.4zm31.3-13.5c2 1.2 3.7 4.5 3.4 6.4-.1.7-.2 1.7-.3 2.1-.2 1.4-3.5 4.8-5.1 5.4-1.1.4-.8.9 1.1 1.8 2.5 1.1 4 3.2 5.2 7.1.8 2.3-2.8 7.8-5.9 8.9-5.8 2.2-14.4.7-16.3-2.9-2.7-4.9-1.6-9.9 2.6-12.6l2.3-1.6-2.5-2.2c-2.7-2.3-3.3-4.5-2.2-8.8 1.3-5 12.1-7.2 17.7-3.6zm-122.2 28.9c.3 2.2-.2 2.9-2.2 3.4-3.6.9-5.6-.1-5.6-2.9 0-3.2.9-3.9 4.5-3.5 2.4.2 3.1.8 3.3 3zm-22.5 14.7l2.7.1v24.5c0 13.5-.2 24.5-.4 24.5s-11.4-11-24.8-24.4c-23.5-23.6-24.3-24.5-21.4-24.8 2.6-.2 34.5-.2 43.9.1z"/><path d="M431 678.7c-7.8 1.5-13.3 10.4-13.3 21.8 0 14 7.1 22.6 18.2 22 10.1-.6 16.1-8.2 16.3-20.8.1-10.4-3.4-18.6-9.3-21.7-2.3-1.3-8.5-1.9-11.9-1.3zM129.3 682.6c-1.7 6.6-1.8 6.8-4.7 15.9-1.4 4.4-2.6 8.3-2.6 8.6 0 .3 3.8.6 8.5.7 4.7 0 8.5-.4 8.5-.8s-1.8-6.3-3.9-13.1c-2.2-6.8-4.1-13.2-4.3-14.3-.2-1-.8.3-1.5 3zM496.8 677.8c-1.6.3-1.8 1.6-1.8 9.9v9.5l5.8-.4c3.6-.2 6.8-1.1 8.5-2.3 4.6-3.4 4.9-12.1.4-14.9-2.2-1.5-9.7-2.5-12.9-1.8zM559.3 679.3c-.2.4-.5 10.2-.6 21.7-.2 20.4-.1 21 1.8 21.1 19 1 27.7-6.5 27.1-23.3-.2-8.8-3.2-14.4-9.3-17.4-4-1.9-18.1-3.5-19-2.1zM683 680c0 .5.5 1 1.1 1 .5 0 .7-.5.4-1-.3-.6-.8-1-1.1-1-.2 0-.4.4-.4 1zM569.9 792.1c-1.4 2.8-1.9 13.3-.8 17.5 1 3.6 4.6 5.2 6.8 3 1.7-1.8 2.6-13.9 1.4-18.6-1.2-4.4-5.4-5.5-7.4-1.9zM626.5 791c-1.6 1.8-1.7 2.3-.5 4.5 1.8 3.3 5.3 3.3 6.8 0 1.5-3.2 1.5-3.1-.4-4.9-2.1-2.1-3.7-2-5.9.4zM625.6 806.2c-2 2.8-2 4.3 0 6.2 3.2 3.3 8.7 1.5 8.7-2.8 0-5-6-7.3-8.7-3.4z"/></svg>