<?xml version="1.0" standalone="no"?>
<!DOCTYPE svg PUBLIC "-//W3C//DTD SVG 20010904//EN"
 "http://www.w3.org/TR/2001/REC-SVG-20010904/DTD/svg10.dtd">
<svg version="1.0" xmlns="http://www.w3.org/2000/svg"
 width="126.000000pt" height="126.000000pt" viewBox="0 0 126.000000 126.000000"
 preserveAspectRatio="xMidYMid meet">
<metadata>
Created by potrace 1.11, written by Peter Selinger 2001-2013
</metadata>
<g transform="translate(0.000000,126.000000) scale(0.100000,-0.100000)"
fill="#000000" stroke="none">
<path d="M505 1244 c-185 -39 -355 -171 -433 -334 -50 -106 -64 -162 -67 -270
-6 -235 136 -468 346 -568 101 -48 159 -63 259 -67 236 -10 476 133 578 345
50 103 71 200 67 300 -5 102 -20 159 -67 260 -73 153 -243 290 -411 329 -78
19 -196 21 -272 5z"/>
</g>
</svg>
