<svg version="1" xmlns="http://www.w3.org/2000/svg" width="1422.667" height="1422.667" viewBox="0 0 1067.000000 1067.000000"><path d="M0 342.2v342.3l29.7 29.7L59.5 744l-10 10c-5.5 5.6-18.9 19-29.7 29.8L0 803.5V1067h1067l-.2-190.8-.3-190.7-36.5-.5-36.5-.5 36.8-.3 36.7-.2V0H0v342.2zM393.5 255l-140 140h33L410 271.5 533.5 148l112 112 112.1 112.1 16.2-.3 16.2-.3-128-128C591.6 173.2 534 115.3 534 115c0-.3 57.8 57.3 128.4 127.9 70.7 70.7 128.3 128.8 128 129.3-.3.4-7.8.8-16.8.8h-16.2L645.5 261l-112-111.9L410 272.5 286.5 396h-35L392 255.5C469.3 178.2 532.7 115 533 115c.3 0-62.5 63-139.5 140zM901 402v12h-2.9c-1.8 0-3.1.6-3.4 1.5-.4 1.1-.4 1-.3-.2.1-1.2 1.1-1.9 2.9-2.1l2.7-.3V391H390v18h-50v5H199.9c-105.6 0-139.8.3-139.3 1.2.4.7.3.8-.4.4s-1.2-1.1-1.2-1.7c0-.5 53.2-.9 140-.9h140v-5h50v-18h512v12zM78.7 436.5c5 5.6 14.4 14.8 20.9 20.6 15.7 13.9 19 17 12.4 11.8-15.6-12.6-44.1-41.3-49.8-50.2-.7-1.2.6 0 3 2.8 2.4 2.7 8.4 9.5 13.5 15zm444.8-11.1c-2 3.6-3.9 6.6-4.2 6.6-.2 0 1.3-3.1 3.3-7 2.1-3.8 3.9-6.8 4.1-6.6.2.2-1.2 3.3-3.2 7zm15.1 0c1.4 2.6 2.1 4.6 1.6 4.2-.5-.3-1.7-2.4-2.8-4.8l-1.9-4.2-.5 49.4-.5 49.5-.2-51c-.2-35.1.1-50.5.8-49.5.5.8 2.1 3.7 3.5 6.4zm355.1-4.2c-.3.7-.5.2-.5-1.2s.2-1.9.5-1.3c.2.7.2 1.9 0 2.5zm-1 5.5c-.3 1-.5.4-.5-1.2 0-1.7.2-2.4.5-1.8.2.7.2 2.1 0 3zm-1 5.5c-.3.7-.5.2-.5-1.2s.2-1.9.5-1.3c.2.7.2 1.9 0 2.5zm-346.5 4.5c1.9 3.2 4.2 7 5.2 8.5 1 1.6 1.6 2.8 1.3 2.8-.5 0-7.3-10.4-9.6-14.8-2.4-4.5-.2-2 3.1 3.5zM518 435c-.6 1.1-1.3 2-1.6 2-.2 0 0-.9.6-2s1.3-2 1.6-2c.2 0 0 .9-.6 2zm372.7 2.2c-.3.7-.5.2-.5-1.2s.2-1.9.5-1.3c.2.7.2 1.9 0 2.5zm-364.4 81.9c-.5.5-.6-18-.3-40.9l.5-41.7.3 40.9c.1 22.6-.1 41.3-.5 41.7zm-11.4-78.9c-1.8 3.4-10.1 15.8-10.6 15.8s-.3-.4 6.1-10.3c4.8-7.5 6.9-10.1 4.5-5.5zm374.7 2.3c-.4 1.2-2.5 1.5-10.3 1.3l-9.8-.2 9.8-.3c9.2-.4 9.7-.5 9.8-2.6 0-1.2.3-1.6.6-.9.3.7.2 1.9-.1 2.7zm-28.9 2.2c-2 .2-5.2.2-7 0-1.7-.2 0-.4 3.8-.4 3.9 0 5.3.2 3.2.4zm-14.4 1c-1.3.2-3.5.2-5 0-1.6-.2-.5-.4 2.2-.4 2.8 0 4 .2 2.8.4zm-10.5 1c-1 .2-2.8.2-4 0-1.3-.2-.5-.4 1.7-.4 2.2-.1 3.2.1 2.3.4zm-9 1c-1 .2-2.6.2-3.5 0-1-.3-.2-.5 1.7-.5s2.7.2 1.8.5zm-7 1c-1 .2-2.6.2-3.5 0-1-.3-.2-.5 1.7-.5s2.7.2 1.8.5zm-261.9 7.8c2.8 4.1 5 7.5 4.7 7.5-.2 0-2.4-2.8-4.8-6.3-5.2-7.2-6.1-8.7-5.4-8.7.2 0 2.7 3.4 5.5 7.5zm255.4-6.8c-.7.2-2.1.2-3 0-1-.3-.4-.5 1.2-.5 1.7 0 2.4.2 1.8.5zm-6 1c-.7.2-2.1.2-3 0-1-.3-.4-.5 1.2-.5 1.7 0 2.4.2 1.8.5zm-6 1c-.7.2-1.9.2-2.5 0-.7-.3-.2-.5 1.2-.5s1.9.2 1.3.5zm-5 1c-.7.2-1.9.2-2.5 0-.7-.3-.2-.5 1.2-.5s1.9.2 1.3.5zm-4.6.9c-.3.3-1.2.4-1.9.1-.8-.3-.5-.6.6-.6 1.1-.1 1.7.2 1.3.5zm-4.4 1.1c-.7.2-1.9.2-2.5 0-.7-.3-.2-.5 1.2-.5s1.9.2 1.3.5zm-4.6.9c-.3.3-1.2.4-1.9.1-.8-.3-.5-.6.6-.6 1.1-.1 1.7.2 1.3.5zm-5.2 1.4c-1.1.5-2.7.9-3.5.9-.9 0-.8-.4.5-.9 1.1-.5 2.7-.9 3.5-.9.9 0 .8.4-.5.9zm-276.7 4.6c-1.8 2.5-3.7 4.8-4.3 5.2-.5.3.3-1.2 1.9-3.4 4.5-6 4.8-6.4 5.3-6.4.2 0-1.1 2.1-2.9 4.6zm270.9-3c-.3.3-1.2.4-1.9.1-.8-.3-.5-.6.6-.6 1.1-.1 1.7.2 1.3.5zm-17.6 5.5c-4.7 1.6-8.6 2.7-8.8 2.5-.5-.5 13.7-5.4 15.7-5.4.8 0-2.3 1.3-6.9 2.9zM916.5 497l36 36-4.5 4.5c-2.5 2.5-26.4 26.5-53.2 53.3l-48.7 48.7 74.2.5 74.2.5-74.7.3c-41.2.1-74.8-.1-74.8-.5 0-.5 24-24.8 53.2-54l53.3-53.3-35.5-35.4-35.5-35.5-7.5-.4-7.5-.3 7.5-.2 7.5-.2 36 36zm-56.2-34.3c-1.3.2-3.5.2-5 0-1.6-.2-.5-.4 2.2-.4 2.8 0 4 .2 2.8.4zm-9.7 1c-.4.4 14.7 16.1 33.6 35 18.8 18.8 34 34.4 33.8 34.7-.3.3-24.6 24.6-54 54.1L810.6 641h-92.1c-93.4 0-94.6 0-94.5-3.5 0-.5.5-.2 1.1.7.9 1.7 6.4 1.8 93.2 1.8h92.2l53.5-53.5 53.4-53.4-34.4-34.6c-19-19-34.7-34.8-34.9-35-.2-.3.4-.5 1.4-.5 1 0 1.5.3 1.1.7zM570 473c4.2 5.3 4.4 5.7 1 2-2.3-2.5-5.1-5.9-6.3-7.5-2.9-4.3-.7-2 5.3 5.5zm173-5c-.8.5-1.9 1-2.5 1-.5 0-.3-.5.5-1s2-1 2.5-1c.6 0 .3.5-.5 1zm-250 4c-1.7 2.2-5.1 6.1-7.6 8.7-2.5 2.6-1.3.9 2.7-4 7.3-8.7 10.8-12.1 4.9-4.7zm245-2c-.8.5-1.9 1-2.5 1-.5 0-.3-.5.5-1s2-1 2.5-1c.6 0 .3.5-.5 1zm-5.3 2.1c-2.8 1.6-9.3 4.2-8.4 3.3.9-1 7.9-4.2 9.2-4.3.6 0 .2.4-.8 1zm-593.2 17.2c.6.5-.6 0-2.5-1.3-5.5-3.8-19-14-19-14.5s20 14.1 21.5 15.8zm583.4-12.9c-1 .9-6.9 3.6-6.9 3.2 0-.7 5.2-3.5 6.4-3.6.5 0 .7.2.5.4zM593.5 499c8.6 9 10 10.6 4.1 5-4.8-4.7-11.9-12.1-15.9-16.5-8.3-9.4-5.7-6.9 11.8 11.5zM715 480.5c0 .2-2.2 1.6-5 3-2.7 1.4-5 2.3-5 2 0-.2 2.1-1.6 4.8-2.9 5.3-2.8 5.2-2.8 5.2-2.1zm-241 13.1c-4.1 4.2-9.9 9.9-12.7 12.6-2.9 2.8-5.3 5.8-5.4 6.7 0 1.2-.2 1.3-.6.2-.3-.8 4.5-6.3 12.3-14.2 7.1-7.1 13.1-12.9 13.4-12.9.2 0-2.9 3.4-7 7.6zm230-7.1c0 .2-1 .9-2.2 1.5-2.2 1.1-2.2 1-.4-.4 2.1-1.7 2.6-1.9 2.6-1.1zm-5.1 2.9c-1.5 1.5-18.9 13.4-18.4 12.6.6-1 17.5-13 18.3-13 .3 0 .3.2.1.4zm-553.3 3.7c.3.6-.5.3-2-.6-1.4-1-2.6-1.9-2.6-2.2 0-.7 3.9 1.7 4.6 2.8zm15.8 9.6c9.4 5.5 12.4 7.7 6.6 4.8-5.3-2.7-21-12.5-21-13.2 0-.3 1.2.3 2.8 1.3 1.5 1 6.7 4.2 11.6 7.1zm502.8 15c-15.7 15.8-22.3 24.4-30.8 40.7-6.2 11.7-7.3 12.3-1.5.8 7.6-15.1 15.8-26 31.2-41.5 8.1-8.1 14.9-14.7 15.2-14.7.3 0-6.1 6.6-14.1 14.7zM174.5 510c.3.5.2 1-.4 1-.5 0-1.3-.5-1.6-1-.3-.6-.2-1 .4-1 .5 0 1.3.4 1.6 1zm-29.7 3.7c9.1 5.8 10 6.5 6.2 4.7-1.9-.9-5.4-3-7.7-4.5-2.3-1.6-4.5-2.9-5-2.9s-5.9 5.1-12.1 11.3L115 533.5l53 53c29.2 29.1 53 53.3 53 53.7 0 .5-33.3.8-74 .8H73l-.3 22.2-.2 22.3-.3-22.8L72 640h148.5l-53.3-53.3-53.2-53.2 11.7-11.8c6.5-6.4 12.1-11.7 12.5-11.7.4 0 3.4 1.7 6.6 3.7zm47.8 6.1c-.5.4-16.6-7.6-16.6-8.3 0-.3 3.8 1.4 8.5 3.7 4.6 2.3 8.3 4.4 8.1 4.6zm412.5-3.7c-.5 1.3-1 1.9-1 1.2-.1-1.5 1-4.5 1.5-4 .3.2 0 1.5-.5 2.8zM459.8 526c0 .8-.6-.1-1.3-2-.7-1.9-1.3-4.2-1.3-5 0-.8.6.1 1.3 2 .7 1.9 1.3 4.2 1.3 5zm81.1-.2c0 1.1-.4.9-1-.8-.6-1.3-1.5-3.2-2.2-4-.7-.9-.2-.5 1.1.8 1.2 1.3 2.2 3.1 2.1 4zM157.5 521c.3.6-.1.7-.9.4-1.8-.7-2.1-1.4-.7-1.4.6 0 1.3.4 1.6 1zm44.3 2c.3 0 .3.2 0 .5-.5.6-7.8-2.2-7.8-3 0-.3 1.6.2 3.6 1s3.9 1.5 4.2 1.5zm320.3.4c-.9 1.8-1.8 2.9-1.9 2.4-.4-.8 2.4-5.8 3.2-5.8.2 0-.4 1.5-1.3 3.4zm-367.4 4.4l-5.7 5.7 53.3 53.3 53.2 53.2 88.4-.2 88.4-.3 1.3-3.5c.7-1.9 1.3-3 1.3-2.4.1.6-.4 2.5-1 4.3l-1.1 3.1H255.5l-53.7-53.7-53.8-53.8 5.7-5.7c3.2-3.2 6-5.8 6.2-5.8.3 0-2 2.6-5.2 5.8zm446.7.6c-1 3.1-1.9 5.4-2.2 5.2-.2-.2.4-2.9 1.4-6 1-3.1 1.9-5.4 2.2-5.2.2.2-.4 2.9-1.4 6zM207 525.5c1.4.8 2.1 1.4 1.5 1.4-.5 0-2.1-.6-3.5-1.4-1.4-.8-2-1.4-1.5-1.4.6 0 2.1.6 3.5 1.4zm9 3.7c1 .6.7.7-1 .2-1.4-.3-3.2-1.1-4-1.6-1-.6-.7-.7 1-.2 1.4.3 3.2 1.1 4 1.6zm325.7 1c-.3.8-.6.5-.6-.6-.1-1.1.2-1.7.5-1.3.3.3.4 1.2.1 1.9zm-314.7 3c1 .6.7.7-1 .2-1.4-.3-3.2-1.1-4-1.6-1-.6-.7-.7 1-.2 1.4.3 3.2 1.1 4 1.6zm235.9 2.8c0 .9-.4.8-.9-.5-.5-1.1-.9-2.7-.9-3.5 0-.9.4-.8.9.5.5 1.1.9 2.7.9 3.5zm62.2 3.4c1.3.9 1.8 1.6 1.2 1.6-1.6 0-6.3-5.8-6.3-7.8.1-.9.7-.3 1.4 1.4.8 1.7 2.4 3.9 3.7 4.8zm13.3-1.5l-2.8 2.6 2.2-2.6c1.2-1.4 2.2-3.2 2.3-4 0-1.1.2-1.1.6 0 .3.7-.7 2.5-2.3 4zM238 536.5c1.9.7 2.8 1.3 2 1.3-.8 0-3.1-.6-5-1.3-1.9-.7-2.8-1.3-2-1.3.8 0 3.1.6 5 1.3zm360.7.7c-.3.8-.6.5-.6-.6-.1-1.1.2-1.7.5-1.3.3.3.4 1.2.1 1.9zM246.5 539c1.3.5 1.4.9.5.9-.8 0-2.4-.4-3.5-.9-1.3-.5-1.4-.9-.5-.9.8 0 2.4.4 3.5.9zm217.2 1.2c-.3.8-.6.5-.6-.6-.1-1.1.2-1.7.5-1.3.3.3.4 1.2.1 1.9zm133.7 2.2c-.3 1.5-.8 2.5-1.1 2.3-.2-.3-.1-1.7.3-3.1.3-1.5.8-2.5 1.1-2.3.2.3.1 1.7-.3 3.1zm-345.7-1.8c-.3.3-1.2.4-1.9.1-.8-.3-.5-.6.6-.6 1.1-.1 1.7.2 1.3.5zm282.3.4c-.8.5-2.6.9-4 .9-2.3-.1-2.3-.2.5-.9 4.3-1.1 5.2-1.1 3.5 0zm-278.3.6c-.3.3-1.2.4-1.9.1-.8-.3-.5-.6.6-.6 1.1-.1 1.7.2 1.3.5zm4 1c-.3.3-1.2.4-1.9.1-.8-.3-.5-.6.6-.6 1.1-.1 1.7.2 1.3.5zm205 1.6c-.3.8-.6.5-.6-.6-.1-1.1.2-1.7.5-1.3.3.3.4 1.2.1 1.9zm-200.4-.5c-.7.2-1.9.2-2.5 0-.7-.3-.2-.5 1.2-.5s1.9.2 1.3.5zm4.4.9c-.3.3-1.2.4-1.9.1-.8-.3-.5-.6.6-.6 1.1-.1 1.7.2 1.3.5zm4.6 1.1c-.7.2-1.9.2-2.5 0-.7-.3-.2-.5 1.2-.5s1.9.2 1.3.5zm6 1c-.7.2-2.1.2-3 0-1-.3-.4-.5 1.2-.5 1.7 0 2.4.2 1.8.5zm186.4 1.5c-.3.8-.6.5-.6-.6-.1-1.1.2-1.7.5-1.3.3.3.4 1.2.1 1.9zm130 0c-.3.8-.6.5-.6-.6-.1-1.1.2-1.7.5-1.3.3.3.4 1.2.1 1.9zm-310.4-.5c-.7.2-2.1.2-3 0-1-.3-.4-.5 1.2-.5 1.7 0 2.4.2 1.8.5zm7 1c-.7.2-2.1.2-3 0-1-.3-.4-.5 1.2-.5 1.7 0 2.4.2 1.8.5zm8.5 1c-1 .2-2.8.2-4 0-1.3-.2-.5-.4 1.7-.4 2.2-.1 3.2.1 2.3.4zm9.5 1c-1.3.2-3.3.2-4.5 0-1.3-.2-.3-.4 2.2-.4s3.5.2 2.3.4zm156.4 1.5c-.3.8-.6.5-.6-.6-.1-1.1.2-1.7.5-1.3.3.3.4 1.2.1 1.9zm127.7 2.2c-.3 2.1-.8 3.5-1.1 3.2-.2-.2-.1-2 .3-4 .3-2.1.8-3.5 1.1-3.2.2.2.1 2-.3 4zm-264.6-2.7c-2.7.2-6.9.2-9.5 0-2.7-.2-.5-.3 4.7-.3s7.4.1 4.8.3zm30.9 1c-2 .2-5.2.2-7 0-1.7-.2 0-.4 3.8-.4 3.9 0 5.3.2 3.2.4zm11.1 1c-1 .2-2.8.2-4 0-1.3-.2-.5-.4 1.7-.4 2.2-.1 3.2.1 2.3.4zm7.5 1c-.7.2-2.1.2-3 0-1-.3-.4-.5 1.2-.5 1.7 0 2.4.2 1.8.5zm89.5 5.8c0 1.6-.2 1.5-.8-.5-.4-1.4-.8-3.4-.8-4.5 0-1.6.2-1.5.8.5.4 1.4.8 3.4.8 4.5zm-84.5-4.8c-.7.2-1.9.2-2.5 0-.7-.3-.2-.5 1.2-.5s1.9.2 1.3.5zm4.4.9c-.3.3-1.2.4-1.9.1-.8-.3-.5-.6.6-.6 1.1-.1 1.7.2 1.3.5zm4 1c-.3.3-1.2.4-1.9.1-.8-.3-.5-.6.6-.6 1.1-.1 1.7.2 1.3.5zm5.3 1.4c1.8 1.2.2 1.2-2.5 0-1.3-.6-1.5-.9-.5-.9.8 0 2.2.4 3 .9zm194.7 3.2c-.3.7-.5.2-.5-1.2s.2-1.9.5-1.3c.2.7.2 1.9 0 2.5zm-182.3 2c7.2 3.8 17.4 13.6 20.5 19.5 1.1 2.3 2.1 4.6 2.1 5-.1.4-1.3-1.4-2.7-4.2-3.6-6.9-12.5-15.4-20.8-19.7-3.8-2.1-6.6-3.8-6.1-3.8.4 0 3.6 1.5 7 3.2zm59.3 2c-.3.7-.5.2-.5-1.2s.2-1.9.5-1.3c.2.7.2 1.9 0 2.5zm122 1c-.3.7-.5.2-.5-1.2s.2-1.9.5-1.3c.2.7.2 1.9 0 2.5zm-121 4.5c-.3 1-.5.4-.5-1.2 0-1.7.2-2.4.5-1.8.2.7.2 2.1 0 3zm120 .5c-.3.7-.5.2-.5-1.2s.2-1.9.5-1.3c.2.7.2 1.9 0 2.5zm36.2.7c-.6 1.8-1.3 3-1.5 2.8-.2-.2.1-1.8.7-3.6s1.3-3 1.5-2.8c.2.2-.1 1.8-.7 3.6zm-155.2 4.8c-.3 1-.5.4-.5-1.2 0-1.7.2-2.4.5-1.8.2.7.2 2.1 0 3zm118 1c-.3 1-.5.4-.5-1.2 0-1.7.2-2.4.5-1.8.2.7.2 2.1 0 3zm34.7 1.7c-.3 1.5-.8 2.5-1.1 2.3-.2-.3-.1-1.7.3-3.1.3-1.5.8-2.5 1.1-2.3.2.3.1 1.7-.3 3.1zm-151.7 5.8c-.2 1.3-.4.5-.4-1.7-.1-2.2.1-3.2.4-2.3.2 1 .2 2.8 0 4zm116 1c-.2 1.3-.4.5-.4-1.7-.1-2.2.1-3.2.4-2.3.2 1 .2 2.8 0 4zm34-1c-.3.8-.6.5-.6-.6-.1-1.1.2-1.7.5-1.3.3.3.4 1.2.1 1.9zm-1 4c-.3.8-.6.5-.6-.6-.1-1.1.2-1.7.5-1.3.3.3.4 1.2.1 1.9zm-148 9c-.2 1.8-.4.6-.4-2.7 0-3.3.2-4.8.4-3.3s.2 4.2 0 6zm114 2c-.2 1.8-.4.4-.4-3.2s.2-5 .4-3.3c.2 1.8.2 4.8 0 6.5zm33-5.5c-.3 1-.5.4-.5-1.2 0-1.7.2-2.4.5-1.8.2.7.2 2.1 0 3zm-184.9 2.8c0 1.6-.2 1.5-.8-.5-1.1-3.4-1.1-6 0-3.5.5 1.1.8 2.9.8 4zm183.9 7.2c-.2 1.6-.4.5-.4-2.2 0-2.8.2-4 .4-2.8.2 1.3.2 3.5 0 5zm-183 1.5c-.2 1.3-.4.3-.4-2.2s.2-3.5.4-2.3c.2 1.3.2 3.3 0 4.5zm93.8 17.8h55.4l.4-7.3.3-7.2.2 7.7.2 7.8H474l.2-8.8.2-8.7.3 8.2.4 8.3h55.4zm89.2-4.3c-.2 1.6-.4.5-.4-2.2 0-2.8.2-4 .4-2.8.2 1.3.2 3.5 0 5zm-183 4.5c-.2 1.3-.4.5-.4-1.7-.1-2.2.1-3.2.4-2.3.2 1 .2 2.8 0 4zm184 1c-.3.8-.6.5-.6-.6-.1-1.1.2-1.7.5-1.3.3.3.4 1.2.1 1.9zm-185 5c-.3.7-.5.2-.5-1.2s.2-1.9.5-1.3c.2.7.2 1.9 0 2.5zm188.1 4.3c0 .5-.6-.4-1.3-2-.8-1.7-1.4-3.7-1.4-4.5 0-.8.7.1 1.4 2s1.3 3.9 1.3 4.5zm-395.5 30.2c-2.3.2-6.4.2-9 0-2.6-.2-.7-.3 4.2-.3 5 0 7.1.1 4.8.3zm211.5 0c-2.1.2-5.5.2-7.5 0-2.1-.2-.4-.4 3.7-.4 4.1 0 5.8.2 3.8.4zm204.5 0c-2.3.2-6.4.2-9 0-2.6-.2-.7-.3 4.2-.3 5 0 7.1.1 4.8.3zm311.5 0c-2.7.2-6.9.2-9.5 0-2.7-.2-.5-.3 4.7-.3s7.4.1 4.8.3zm-813.5 5.7c.9 2.7 1.6 5.1 1.3 5.3-.2.2-1.2-1.8-2.1-4.6l-1.7-5.1h-17.6l-1.2 3.6c-.7 1.9-1.4 3.3-1.7 3.1-.2-.3.3-2.1 1.1-4.1l1.5-3.7 9.3.3 9.2.3 1.9 4.9zm71.4-4.8c-.3.3-1.2.4-1.9.1-.8-.3-.5-.6.6-.6 1.1-.1 1.7.2 1.3.5zm22.6.1c-.7.2-1.9.2-2.5 0-.7-.3-.2-.5 1.2-.5s1.9.2 1.3.5zm81.6 1c0 1.1-.3 1.3-.6.5s-2.9-1.2-8-1.2h-7.5l.6 3.7c.4 2.7.3 3.2-.4 1.8-.5-1.1-.9-3-.9-4.3-.1-2.1.2-2.2 8.4-2.2 7.5 0 8.5.2 8.4 1.7zm41.5.9c.4 1.5.5 2.8.3 3.1-.3.2-.7-.8-1.1-2.2-.6-2.4-.9-2.5-8.6-2.5-6.8 0-8 .3-8 1.7 0 .9-.3 1.4-.6 1-.4-.3-.4-1.3-.1-2.2.5-1.2 2.4-1.5 9.1-1.5 8.2 0 8.4.1 9 2.6zm37.5-.9c0 1.1-.3 1.3-.6.5s-2.8-1.2-7.3-1.2-7 .4-7.3 1.2c-.3.8-.6.6-.6-.5-.1-1.5.9-1.7 7.9-1.7s8 .2 7.9 1.7zm25.3.4c-2.8 1.1-6.9 3.6-8.9 5.5s-3.8 3.3-4 3c-.2-.2 1.3-1.8 3.4-3.6 3.8-3.4 10.7-7 13.3-6.9.8 0-.9.9-3.8 2zM448 667c1.8 1.2.2 1.2-2.5 0-1.3-.6-1.5-.9-.5-.9.8 0 2.2.4 3 .9zm48.3-.3l-16.3.3v66.9l7.8.4 7.7.3-8.2.2-8.3.2v-69l16.8.2 16.7.2-16.2.3zm64 0l-16.3.3v66.9l15.3.4 15.2.3-15.7.2-15.8.2v-69l16.8.2 16.7.2-16.2.3zm69.4-.1c-.3.3-1.2.4-1.9.1-.8-.3-.5-.6.6-.6 1.1-.1 1.7.2 1.3.5zm22.6.1c-.7.2-1.9.2-2.5 0-.7-.3-.2-.5 1.2-.5s1.9.2 1.3.5zm30 0l-11.3.4v66.8l6.8.4 6.7.3-7.2.2-7.3.2v-69l11.8.2 11.7.2-11.2.3zm55.1 0l-11 .4-2.3 7c-1.2 3.9-2.5 6.9-2.7 6.6-.3-.3 1.6-6.6 4.1-13.5.3-.9 3.4-1.1 11.7-1l11.3.2-11.1.3zm47.4 5.5l-.2 6.3-.3-5.7-.4-5.7-13.2-.4-13.2-.3 13.8-.2 13.7-.2-.2 6.2zm58.2.3v6.5l-10.2-.2-10.3-.2 9.8-.3 9.7-.4V667h-53v11h19v55.9l7.3.4 7.2.3H815l-7.5-.1-.3-27.8-.2-27.7h-19v-13h55v6.5zm20.8-5.8c-2.1.2-5.7.2-8 0-2.4-.2-.7-.4 3.7-.4s6.3.2 4.3.4zm47.2 33.8V735h-16v-27.9l-14.2-.4-14.3-.3 14.8-.2 14.7-.2v28h14v-67h-14v27l-14.7-.2-14.8-.2 14.3-.3 14.2-.4v-12.8c0-7 .3-13.1.7-13.4.3-.4 3.9-.7 8-.7h7.3v34.5zm29.7-33.9c-.3.3-1.2.4-1.9.1-.8-.3-.5-.6.6-.6 1.1-.1 1.7.2 1.3.5zm23 0c-.3.3-1.2.4-1.9.1-.8-.3-.5-.6.6-.6 1.1-.1 1.7.2 1.3.5zm-756.2 2.1c-4.1 2.1-6.5 4.3-8.6 7.8-1.1 1.6-1.9 2.5-1.9 1.8 0-2.8 9.5-11.4 12.5-11.3.6.1-.3.8-2 1.7zm32.5 5.8c0 7.5 0 7.6-2.2 6.4-3.3-1.7-3.7-2.3-1-1.4 2.4.7 2.4.6 2-5.9-.1-3.6 0-6.6.5-6.6.4 0 .7 3.4.7 7.5zm275.7-6.9c-.3.3-1.2.4-1.9.1-.8-.3-.5-.6.6-.6 1.1-.1 1.7.2 1.3.5zm64.6.1c-.7.2-1.9.2-2.5 0-.7-.3-.2-.5 1.2-.5s1.9.2 1.3.5zm43.2 1c-4.1 2.1-6.5 4.3-8.6 7.8-1.1 1.6-1.9 2.5-1.9 1.8 0-2.8 9.5-11.4 12.5-11.3.6.1-.3.8-2 1.7zm32.5 5.8c0 7.5 0 7.6-2.2 6.4-3.3-1.7-3.7-2.3-1-1.4 2.4.7 2.4.6 2-5.9-.1-3.6 0-6.6.5-6.6.4 0 .7 3.4.7 7.5zm278.5-5.8c-1.6.8-4.3 2.7-6 4.2-2.7 2.3-2.8 2.4-1 .2 2.2-2.6 7.4-6.1 9-6.1.6.1-.3.8-2 1.7zm-475.9 5.7c3.5 3.5 6.4 6.9 6.4 7.6 0 .6-1.5-.8-3.3-3.1-1.8-2.4-5.2-5.8-7.6-7.6-2.3-1.8-3.7-3.3-3.1-3.3.7 0 4.1 2.9 7.6 6.4zm62.4-4.9c3 1.6 7 6 7 7.9 0 .6-.9-.3-2-2.1-1-1.8-3.6-4.1-5.7-5.2-2.1-1.1-3.4-2-3-2.1.4 0 2.1.7 3.7 1.5zm63.7-.9c-.3.3-1.2.4-1.9.1-.8-.3-.5-.6.6-.6 1.1-.1 1.7.2 1.3.5zm-266 4.6c-.3.7-.5.2-.5-1.2s.2-1.9.5-1.3c.2.7.2 1.9 0 2.5zm62 0c-.3.7-.5.2-.5-1.2s.2-1.9.5-1.3c.2.7.2 1.9 0 2.5zm15-1c-.3.8-.6.5-.6-.6-.1-1.1.2-1.7.5-1.3.3.3.4 1.2.1 1.9zm198.6 1.8c4.3 3.9 8.8 11.1 8.6 14.1 0 .8-.7-.3-1.4-2.4-2-5.3-5.1-9.4-9.8-12.8-2.2-1.6-3.5-2.9-3-2.9.6 0 3.1 1.8 5.6 4zm-253.6-.8c-.3.8-.6.5-.6-.6-.1-1.1.2-1.7.5-1.3.3.3.4 1.2.1 1.9zm22.2 10.8c0 .8-.7-.8-1.5-3.5-.7-2.8-1.3-5.7-1.3-6.5 0-.8.7.7 1.5 3.5.7 2.7 1.3 5.7 1.3 6.5zm31-4.6c-.6 2.6-1.3 4.5-1.6 4.3-.2-.3.1-2.6.8-5.1.6-2.6 1.3-4.5 1.6-4.3.2.3-.1 2.6-.8 5.1zm304 .8c1.1 3.4 1.9 6.3 1.7 6.5-.2.3-1.2-2-2.1-4.9-1-2.9-2-5.9-2.3-6.6-.2-.6-.2-1.2.1-1.2.3 0 1.5 2.8 2.6 6.2zm-394.2-3c-.3.8-.6.5-.6-.6-.1-1.1.2-1.7.5-1.3.3.3.4 1.2.1 1.9zm16 1c-.3.7-.5.2-.5-1.2s.2-1.9.5-1.3c.2.7.2 1.9 0 2.5zm19.7.2c-.3 1.5-.8 2.5-1.1 2.3-.2-.3-.1-1.7.3-3.1.3-1.5.8-2.5 1.1-2.3.2.3.1 1.7-.3 3.1zm40.3-1.2c-.3.8-.6.5-.6-.6-.1-1.1.2-1.7.5-1.3.3.3.4 1.2.1 1.9zm545.7 0c-.4.6-1 3.9-1.4 7.2-.7 5.9-.7 6-.9 1.4-.1-4.5 1.2-9.8 2.4-9.8.4 0 .3.5-.1 1.2zm-704.1.5c-.7.2-1.9.2-2.5 0-.7-.3-.2-.5 1.2-.5s1.9.2 1.3.5zm8.5 0c-1 .2-2.6.2-3.5 0-1-.3-.2-.5 1.7-.5s2.7.2 1.8.5zm273 0c-1.6.2-4 .2-5.5 0-1.6-.2-.3-.4 2.7-.4s4.3.2 2.8.4zm134.5 0c-.7.2-1.9.2-2.5 0-.7-.3-.2-.5 1.2-.5s1.9.2 1.3.5zm8.5 0c-1 .2-2.6.2-3.5 0-1-.3-.2-.5 1.7-.5s2.7.2 1.8.5zm303.5 0c-.7.2-2.1.2-3 0-1-.3-.4-.5 1.2-.5 1.7 0 2.4.2 1.8.5zm7.5 0c-1 .2-2.6.2-3.5 0-1-.3-.2-.5 1.7-.5s2.7.2 1.8.5zm-839.7 3c-1.2 2-1.4 1.4-.5-1.2.4-.9.9-1.4 1.1-1.1.3.2 0 1.3-.6 2.3zm15.3 3.3c.4 2.4.3 2.8-.2 1.5-1.4-3.1-2.4-8.3-1.3-6.5.5.8 1.1 3.1 1.5 5zm82.8-4.4c-1.2.8-2.2 2.3-2.3 3.2 0 1.1-.2 1.3-.6.4-.6-1.4 2.4-5.2 4.1-5.2.6 0 0 .7-1.2 1.6zm191.6 2.1c-2.7 4.7-2.8 4.9-2.8 3.7 0-1.1 3.8-7.4 4.5-7.4.2 0-.5 1.7-1.7 3.7zm32.7-3.2c-2.4.8-11.6 1.2-10.3.4.7-.5 3.6-.8 6.3-.8 2.8 0 4.6.2 4 .4zm71.2 1.7c1.3 1.2 2.3 2.9 2.3 3.7 0 1-.5.6-1.3-.9-.7-1.3-2.4-3-3.7-3.7-1.4-.7-1.9-1.3-1.1-1.3.8 0 2.5 1 3.8 2.2zm54.1-1.5l-5.8.4v42.8l5.3.4 5.2.3H564l-5.5-.1-.3-21c-.1-11.5 0-21.5.2-22.2.4-.9 2.4-1.2 6.3-1.1l5.8.2-5.7.3zm66.3.9c-2 1.4-2.2 2.3-1.8 5.7.4 2.7.2 3.6-.4 2.6-2.1-3.3.2-9.9 3.5-9.9.6 0 0 .7-1.3 1.6zM764 700.5V723l-3.2-.1c-3.1-.2-3.1-.2-.5-.6l2.7-.4v-22c0-12 .2-21.9.5-21.9s.5 10.1.5 22.5zm178.2-20.9c-4.5 3.1-2.2 8.8 5.3 12.7 1.7.9 2.6 1.6 2.2 1.7-3.4.1-10.7-6.6-10.7-9.9 0-2.5 2.5-6.1 4.4-6.1.6 0 0 .7-1.2 1.6zm-637.5 1.6c-.3.8-.6.5-.6-.6-.1-1.1.2-1.7.5-1.3.3.3.4 1.2.1 1.9zm74 1c-.3.7-.5.2-.5-1.2s.2-1.9.5-1.3c.2.7.2 1.9 0 2.5zm66.4-1.1c2.8 2 6.5 7.6 5.6 8.5-.2.3-1-.9-1.7-2.6-.7-1.7-2.9-4.2-4.9-5.6-2-1.3-3.2-2.4-2.7-2.4.4 0 2.1.9 3.7 2.1zm83.6 1.6c-.3 1-.5.4-.5-1.2 0-1.7.2-2.4.5-1.8.2.7.2 2.1 0 3zm46-3.1c-.3.3-1.2.4-1.9.1-.8-.3-.5-.6.6-.6 1.1-.1 1.7.2 1.3.5zm109.7 5.1c-.9 7.8-1.4 7.9-1.4.5 0-3.5.4-6.2 1-6.2s.8 2.1.4 5.7zm49.6-.5c0 6.2-.5 6-1.4-.5-.5-3.1-.4-4.7.3-4.7s1.1 2.2 1.1 5.2zm231.6-3.6c1.8 1.4 1.8 1.4-.6.3-3.1-1.4-3.6-1.9-2.4-1.9.6 0 1.9.7 3 1.6zm-768.9 7.6c-.2 1.8-.4.6-.4-2.7 0-3.3.2-4.8.4-3.3s.2 4.2 0 6zm124-6c-.3.8-.6.5-.6-.6-.1-1.1.2-1.7.5-1.3.3.3.4 1.2.1 1.9zm104.6-.4c-1.1.9-3.1 3.3-4.2 5.2-1.2 1.9-2.1 3.1-2.1 2.6 0-1.5 4.1-7.5 5.8-8.6 2.7-1.5 2.9-1.1.5.8zm155.8 1.4c2 1.8 2.6 2.6 1.5 1.7-1.2-.9-3.2-2.3-4.6-3.2-1.3-1-2-1.7-1.4-1.7.6 0 2.6 1.5 4.5 3.2zm35.3 13.2c1.5 2 4 4.3 5.7 5.1 1.6.9 2.9 1.8 2.9 2.1 0 1.4-6.6-3.5-9.3-6.9-2.7-3.3-3.1-4.7-3.3-10.5l-.2-6.7.7 6.7c.6 4.9 1.4 7.6 3.5 10.2zM129 685.7c-1.1 1.7-1.1 1.7-.6 0 .3-1 .7-2.6.7-3.5.1-1.5.2-1.5.6 0 .2 1-.1 2.5-.7 3.5zm19.4 3.3c.5 2 .3 1.9-.8-.5-.7-1.7-1.6-4.1-2-5.5-.5-2-.3-1.9.8.5.7 1.6 1.6 4.1 2 5.5zm189.3-4.8c-.3.8-.6.5-.6-.6-.1-1.1.2-1.7.5-1.3.3.3.4 1.2.1 1.9zm382.3 1.5c-1.1 1.7-1.1 1.7-.6 0 .3-1 .6-2.4.7-3 0-.9.2-.9.5 0 .3.7 0 2-.6 3zm-414.3-.5c-.3.8-.6.5-.6-.6-.1-1.1.2-1.7.5-1.3.3.3.4 1.2.1 1.9zm43.4 2.9c-.9 2.3-1 2.3-1 .2-.1-1.2.2-3 .6-4 .6-1.5.8-1.5 1.1-.2.1.8-.2 2.6-.7 4zm-27.4-.9c-.3.7-.5.2-.5-1.2s.2-1.9.5-1.3c.2.7.2 1.9 0 2.5zm56 0c-.3.7-.5.2-.5-1.2s.2-1.9.5-1.3c.2.7.2 1.9 0 2.5zm89.2.8c0 1-.3.8-.9-.5-1.2-2.7-1.2-4.3 0-2.5.5.8.9 2.2.9 3zm220.7 4.8c-.5.5-2.6-5.9-2.5-7.7 0-.9.7.4 1.4 2.9.8 2.4 1.3 4.6 1.1 4.8zm44.1-6.6c-.3.8-.6.5-.6-.6-.1-1.1.2-1.7.5-1.3.3.3.4 1.2.1 1.9zM214 688.5c0 .5-.5.3-1-.5s-1-2-1-2.5c0-.6.5-.3 1 .5s1 1.9 1 2.5zm177.7-1.3c-.3.8-.6.5-.6-.6-.1-1.1.2-1.7.5-1.3.3.3.4 1.2.1 1.9zm-55.3 2.2c-.3 1.5-.8 2.5-1.1 2.3-.2-.3-.1-1.7.3-3.1.3-1.5.8-2.5 1.1-2.3.2.3.1 1.7-.3 3.1zm27.3-1.2c-.3.8-.6.5-.6-.6-.1-1.1.2-1.7.5-1.3.3.3.4 1.2.1 1.9zm162.8 6.3c-1.5 2.7-4.3 5.5-7 7l-4.4 2.6 3.5 3.1c1.9 1.7 4 4 4.5 5.2.6 1.1-.6.2-2.8-2.1-2.1-2.3-4.6-4.6-5.7-5.1-1.6-.8-1.2-1.3 3.3-3.8 5.5-2.9 10-8.9 10.2-13.5.2-2.4.2-2.4.6-.1.3 1.3-.6 4.1-2.2 6.7zm511.2 20.3c-15.8 15.8-28.7 29.2-28.7 29.7 0 .6 4.4 5.3 9.8 10.6 5.3 5.3 11 11.2 12.7 13 1.6 1.9-3.2-2.7-10.8-10.1l-13.7-13.5 29.2-29.2c16.1-16.1 29.5-29.3 29.8-29.3.3 0-12.4 12.9-28.3 28.8zm-911.8-18.9c-1.3 3.9-2.5 6.9-2.7 6.7-.2-.3.7-3.6 1.9-7.5 1.3-3.9 2.5-6.9 2.7-6.7.2.3-.7 3.6-1.9 7.5zm225.9-1.9c0 .9-.3.7-.8-.5-.5-1.1-.8-2.9-.8-4 0-1.6.2-1.5.8.5.4 1.4.8 3.2.8 4zm161.2-4.4c0 2.4-5.6 7.4-8.2 7.3-1.8 0-1.6-.3 1.2-1.2 2.4-.8 4-2.3 5-4.4 1.7-3.7 2-3.9 2-1.7zm-400.6 4.8c-.9 2.6-1.8 4.5-2 4.3-.2-.2.3-2.5 1.2-5.1.9-2.6 1.8-4.5 2-4.3.2.2-.3 2.5-1.2 5.1zm110.1-.6c-.5.5-6.3-2.6-6.9-3.7-.4-.5 1.2 0 3.3 1.2 2.2 1.2 3.8 2.3 3.6 2.5zm100.2-1.6c-.3.7-.5.2-.5-1.2s.2-1.9.5-1.3c.2.7.2 1.9 0 2.5zm54 0c-.3.7-.5.2-.5-1.2s.2-1.9.5-1.3c.2.7.2 1.9 0 2.5zm13.2 2.2c-.6 2.6-1.3 4.5-1.6 4.3-.2-.3.1-2.6.8-5.1.6-2.6 1.3-4.5 1.6-4.3.2.3-.1 2.6-.8 5.1zm248.6-.6c-.5.5-6.3-2.6-6.9-3.7-.4-.5 1.2 0 3.3 1.2 2.2 1.2 3.8 2.3 3.6 2.5zm-330.8-1.6c-.3.8-.6.5-.6-.6-.1-1.1.2-1.7.5-1.3.3.3.4 1.2.1 1.9zm57 0c-.3.8-.6.5-.6-.6-.1-1.1.2-1.7.5-1.3.3.3.4 1.2.1 1.9zm38 1c-.3.7-.5.2-.5-1.2s.2-1.9.5-1.3c.2.7.2 1.9 0 2.5zm65 0c-.3.7-.5.2-.5-1.2s.2-1.9.5-1.3c.2.7.2 1.9 0 2.5zm120.3 1.2c0 2.6-.6 1.8-1.4-1.9-.5-2.2-.4-2.6.4-1.5.5.8 1 2.4 1 3.4zm15.7.3c-.3 1-.5.2-.5-1.7s.2-2.7.5-1.8c.2 1 .2 2.6 0 3.5zm-256.3-.3c-.3 1.5-.8 2.5-1.1 2.3-.2-.3-.1-1.7.3-3.1.3-1.5.8-2.5 1.1-2.3.2.3.1 1.7-.3 3.1zm71.3-1.2c-.3.8-.6.5-.6-.6-.1-1.1.2-1.7.5-1.3.3.3.4 1.2.1 1.9zm33 1c-.3.7-.5.2-.5-1.2s.2-1.9.5-1.3c.2.7.2 1.9 0 2.5zm251.2 1.3c0 .5-.4.3-.9-.5s-.9-2.2-.9-3c0-1.6 1.7 1.6 1.8 3.5zm14.2-1.4c-.5 1.3-1 1.9-1 1.2-.1-1.5 1-4.5 1.5-4 .3.2 0 1.5-.5 2.8zm12 0c-.5 1.3-1 1.9-1 1.2-.1-1.5 1-4.5 1.5-4 .3.2 0 1.5-.5 2.8zm200.2 4.7c.8.7 3.9 2.6 6.8 4.2 3 1.6 4.9 3 4.4 3-.6 0-3.5-1.5-6.5-3.3-5.1-3-10.1-8.6-10-11.1.1-.6.9.5 2 2.5 1 1.9 2.5 4.1 3.3 4.7zm-726.7.3c1 .9 4.6 3.1 7.9 4.7 3.3 1.7 5.6 3.1 5.2 3.2-.4 0-3.4-1.3-6.6-2.9-5.6-2.9-12.1-8.9-12.1-11.4 0-.7.8.1 1.9 1.8 1 1.6 2.7 3.7 3.7 4.6zm132.1-3.9c-.3.8-.6.5-.6-.6-.1-1.1.2-1.7.5-1.3.3.3.4 1.2.1 1.9zM138.8 705c0 .8-.8-.8-1.8-3.5-1-2.8-1.8-5.7-1.8-6.5 0-.8.8.7 1.8 3.5 1 2.7 1.8 5.7 1.8 6.5zm89.2-9.5c1.7.9 3 1.8 3 2.1 0 .4-5.9-2.3-6.9-3.2-1-.9 1.3-.3 3.9 1.1zm80.7.7c-.3.8-.6.5-.6-.6-.1-1.1.2-1.7.5-1.3.3.3.4 1.2.1 1.9zm16.1 4.3c0 1.6-.2 1.5-.8-.5-.4-1.4-.8-3.4-.8-4.5 0-1.6.2-1.5.8.5.4 1.4.8 3.4.8 4.5zm40.9-4.3c-.3.8-.6.5-.6-.6-.1-1.1.2-1.7.5-1.3.3.3.4 1.2.1 1.9zm10 1c-.3.7-.5.2-.5-1.2s.2-1.9.5-1.3c.2.7.2 1.9 0 2.5zM645 696c2.2 1.1 4 2.3 4 2.5 0 .5-7.9-3.2-8.9-4.1-1.1-1 1.4-.2 4.9 1.6zm44.9 2c0 1-.3.8-.9-.5-1.2-2.7-1.2-4.3 0-2.5.5.8.9 2.2.9 3zm-288.2 6.2c-.2 1.8-.4.4-.4-3.2s.2-5 .4-3.3c.2 1.8.2 4.8 0 6.5zm16-1c-.2 1.8-.4.6-.4-2.7 0-3.3.2-4.8.4-3.3s.2 4.2 0 6zm539.6-6.6c6.4 3.2 12.8 10.8 12.7 15.1-.1 1-.7.1-1.5-2.1-1.7-4.9-5.8-9.1-11.5-12.1-2.5-1.3-4.1-2.4-3.7-2.5.4 0 2.2.7 4 1.6zm-604.6 1.6c-.3.8-.6.5-.6-.6-.1-1.1.2-1.7.5-1.3.3.3.4 1.2.1 1.9zm116 4c-.2 1.3-.4.3-.4-2.2s.2-3.5.4-2.3c.2 1.3.2 3.3 0 4.5zm-135.3-1.8c-.3 1.5-.8 2.5-1.1 2.3-.2-.3-.1-1.7.3-3.1.3-1.5.8-2.5 1.1-2.3.2.3.1 1.7-.3 3.1zm119.3 2.8c-.2 1.3-.4.3-.4-2.2s.2-3.5.4-2.3c.2 1.3.2 3.3 0 4.5zm260.9 1.4c-1.4 3.8-2.5 6.4-2.5 5.8-.1-1.5 4-13.6 4.5-13.1.2.2-.7 3.5-2 7.3zm13.3-3.7c-.6 1.8-1.3 3-1.5 2.8-.2-.2.1-1.8.7-3.6s1.3-3 1.5-2.8c.2.2-.1 1.8-.7 3.6zm-573.9.6c0 .5-.5.3-1-.5s-1-2-1-2.5c0-.6.5-.3 1 .5s1 1.9 1 2.5zm85.9 2c1.7 2 3.1 4.1 3.1 4.8 0 .7-.9-.2-1.9-1.9-1-1.7-3.4-4.3-5.2-5.8-1.9-1.5-2.4-2.3-1.3-1.7 1.2.6 3.5 2.6 5.3 4.6zm71.9 0c0 1.6-.2 1.5-.8-.5-1.1-3.4-1.1-6 0-3.5.5 1.1.8 2.9.8 4zm34.9-3.3c-.3.8-.6.5-.6-.6-.1-1.1.2-1.7.5-1.3.3.3.4 1.2.1 1.9zm21 0c-.3.8-.6.5-.6-.6-.1-1.1.2-1.7.5-1.3.3.3.4 1.2.1 1.9zm8 2c-.3.7-.5.2-.5-1.2s.2-1.9.5-1.3c.2.7.2 1.9 0 2.5zm281.3 2.4c1.2 1.9 2 3.7 1.6 4.1-.3.3-.6.1-.6-.5 0-.7-1.7-3.1-3.7-5.4-2.1-2.2-2.9-3.5-1.7-2.8 1.1.7 3.1 2.8 4.4 4.6zm-546.9-1.9c-1.2 2-1.4 1.4-.5-1.2.4-.9.9-1.4 1.1-1.1.3.2 0 1.3-.6 2.3zm244.6-.5c-.3.8-.6.5-.6-.6-.1-1.1.2-1.7.5-1.3.3.3.4 1.2.1 1.9zm34 0c-.3.8-.6.5-.6-.6-.1-1.1.2-1.7.5-1.3.3.3.4 1.2.1 1.9zm305.7 5.8c.5 2 .3 1.9-.8-.5-.7-1.7-1.6-4.1-2-5.5-.5-2-.3-1.9.8.5.7 1.6 1.6 4.1 2 5.5zm14.1.6c.4 2.5.3 2.4-.8-.6-.8-1.9-1.7-4.6-2-6-.5-1.9-.3-1.7.8.6.7 1.7 1.6 4.4 2 6zm-363.1-2.7c-.4 1.7-.9 3-1.1 2.7-.3-.2-.2-1.9.2-3.6.9-4.1 1.7-3.3.9.9zm23.3-1.7c-.3.8-.6.5-.6-.6-.1-1.1.2-1.7.5-1.3.3.3.4 1.2.1 1.9zm-212.8 3.3c0 .5-.4.3-.9-.5s-.9-2.2-.9-3c0-1.6 1.7 1.6 1.8 3.5zm170.8-1.3c-.3.7-.5.2-.5-1.2s.2-1.9.5-1.3c.2.7.2 1.9 0 2.5zm261.4 3.1c-.6 1.7-2.3 4.5-3.7 6.2l-2.5 3 2.6-4c1.4-2.2 2.8-5.8 3.2-8 .4-2.2.9-3.2 1.1-2.2.2.9-.1 3.2-.7 5zm15.9.7l-1.1 2.5.6-2.5c.2-1.4.5-3.6.6-5l.2-2.5.4 2.5c.2 1.4-.1 3.7-.7 5zm-271.3-3.8c-.3.8-.6.5-.6-.6-.1-1.1.2-1.7.5-1.3.3.3.4 1.2.1 1.9zm23 0c-.3.8-.6.5-.6-.6-.1-1.1.2-1.7.5-1.3.3.3.4 1.2.1 1.9zm19 1c-.3.7-.5.2-.5-1.2s.2-1.9.5-1.3c.2.7.2 1.9 0 2.5zm13-1c-.3.8-.6.5-.6-.6-.1-1.1.2-1.7.5-1.3.3.3.4 1.2.1 1.9zm243.3-.7c1.4.8 2.1 1.4 1.5 1.4-.5 0-2.1-.6-3.5-1.4-1.4-.8-2-1.4-1.5-1.4.6 0 2.1.6 3.5 1.4zm-523 3.2c-1.1 1.7-1.1 1.7-.6 0 .3-1 .6-2.4.7-3 0-.9.2-.9.5 0 .3.7 0 2-.6 3zm617 0c-1.1 1.7-1.1 1.7-.6 0 .3-1 .6-2.4.7-3 0-.9.2-.9.5 0 .3.7 0 2-.6 3zM312.9 711c0 .9-.4.8-.9-.5-.5-1.1-.9-2.7-.9-3.5 0-.9.4-.8.9.5.5 1.1.9 2.7.9 3.5zm55.8-2.8c-.3.8-.6.5-.6-.6-.1-1.1.2-1.7.5-1.3.3.3.4 1.2.1 1.9zm99 1.5c-.3 1-.5.4-.5-1.2 0-1.7.2-2.4.5-1.8.2.7.2 2.1 0 3zm478.3-2.2c1.7.9 3 1.8 3 2.1 0 .4-5.9-2.3-6.9-3.2-1-.9 1.3-.3 3.9 1.1zm-810.2.2c-2.6.2-7.1.2-10 0-2.9-.2-.8-.3 4.7-.3s7.9.1 5.3.3zm86.5 1.8c2 1.4 3.7 2.8 3.7 3.1 0 .3-1.2-.3-2.7-1.4-1.6-1-3.7-2.4-4.8-3-1.1-.6-1.5-1.2-1-1.2.6 0 2.7 1.1 4.8 2.5zm199.6 5.8c4.3 7 15.9 8.8 23.2 3.6 1.9-1.3 2.8-1.6 2.1-.7-3.8 4.8-13.6 6.2-20.2 2.8-4.1-2.1-9.1-9.1-8.9-12.6 0-1.3.3-1.1.9.8.4 1.5 1.8 4.3 2.9 6.1zm28.6-2.4c-.8 1.7-1.8 3.1-2.1 3.1-.2 0 .2-1.3 1.1-3 .8-1.6 1.6-3.7 1.6-4.7.1-1.6.2-1.6.6-.1.2.9-.3 3-1.2 4.7zm187.8-3.4c2 1.4 3.7 2.8 3.7 3.1 0 .3-1.2-.3-2.7-1.4-1.6-1-3.7-2.4-4.8-3-1.1-.6-1.5-1.2-1-1.2.6 0 2.7 1.1 4.8 2.5zm-311.6 1.7c-.3.7-.5.2-.5-1.2s.2-1.9.5-1.3c.2.7.2 1.9 0 2.5zm3.7.7c-.4 1.7-.9 3-1.1 2.7-.3-.2-.2-1.9.2-3.6.9-4.1 1.7-3.3.9.9zm25.3-1.7c-.3.8-.6.5-.6-.6-.1-1.1.2-1.7.5-1.3.3.3.4 1.2.1 1.9zm30 0c-.3.8-.6.5-.6-.6-.1-1.1.2-1.7.5-1.3.3.3.4 1.2.1 1.9zm17 1c-.3.7-.5.2-.5-1.2s.2-1.9.5-1.3c.2.7.2 1.9 0 2.5zm99.7-2.4c.2.4-1.3.6-3.5.4-2.1-.2-3.9-.6-3.9-.8 0-.7 6.9-.4 7.4.4zm-129.7 2.4c-.3.8-.6.5-.6-.6-.1-1.1.2-1.7.5-1.3.3.3.4 1.2.1 1.9zm-130 7c-.2 1.8-.4.6-.4-2.7 0-3.3.2-4.8.4-3.3s.2 4.2 0 6zm99.7-4.8c-.3 1.5-.8 2.5-1.1 2.3-.2-.3-.1-1.7.3-3.1.3-1.5.8-2.5 1.1-2.3.2.3.1 1.7-.3 3.1zm27.3-.2c-.3.7-.5.2-.5-1.2s.2-1.9.5-1.3c.2.7.2 1.9 0 2.5zm137.3-.1c1.5 2.8.5 2.3-1.5-.7-.9-1.5-1.2-2.3-.6-2 .6.4 1.6 1.6 2.1 2.7zm151.7 5.1c-.2 1.8-.4.6-.4-2.7 0-3.3.2-4.8.4-3.3s.2 4.2 0 6zm295.2-3.8c-.2.2-1.3-.8-2.3-2.2l-1.9-2.7 2.4 2.2c1.2 1.2 2.1 2.4 1.8 2.7zm-849 .5c-.6 1.8-1.3 3-1.5 2.8-.2-.2.1-1.8.7-3.6s1.3-3 1.5-2.8c.2.2-.1 1.8-.7 3.6zm54.5 5.1c.5 2 .3 1.9-.8-.5-.7-1.7-1.6-4.1-2-5.5-.5-2-.3-1.9.8.5.7 1.6 1.6 4.1 2 5.5zm198.4-2.5c0 1.6-.2 1.5-.8-.5-1.1-3.4-1.1-6 0-3.5.5 1.1.8 2.9.8 4zm26.6-2.1c-.3 1.5-.8 2.5-1.1 2.3-.2-.3-.1-1.7.3-3.1.3-1.5.8-2.5 1.1-2.3.2.3.1 1.7-.3 3.1zm81.7 0c-1.4 3.6-2.2 3.3-.9-.5.6-1.6 1.2-2.8 1.4-2.6.3.2 0 1.6-.5 3.1zm243.1-.9c.3 1.3.1 2.2-.3 1.9-.9-.5-1.3-4.4-.5-4.4.2 0 .6 1.1.8 2.5zm1.5-.3c-.3.8-.6.5-.6-.6-.1-1.1.2-1.7.5-1.3.3.3.4 1.2.1 1.9zm-397 1c-.3.8-.6.5-.6-.6-.1-1.1.2-1.7.5-1.3.3.3.4 1.2.1 1.9zm15.2 3c.1 1-.3 1.8-.9 1.8-.5 0-1-1.7-.9-3.8 0-3 .2-3.3.9-1.7.5 1.1.9 2.8.9 3.7zm43.1-1.7c0 1.9-.4 3.5-1 3.5-1.1 0-1.3-3-.4-5.4 1-2.5 1.4-1.9 1.4 1.9zm227.7 1.8c-3.9 6.7-14.3 14.7-18.9 14.7-.7 0 1-1.1 3.8-2.4 6.6-3.1 11.5-7.5 14.5-13 1.3-2.5 2.5-4.3 2.7-4.1.3.2-.7 2.4-2.1 4.8zm-374.3 2.8c-.9 1-2.2 1.9-2.8 1.9-.6 0 0-.7 1.2-1.6 1.4-1 2.3-2.7 2.3-4.7.2-3.2.2-3.2.6-.4.3 1.8-.2 3.6-1.3 4.8zm416 0c-.9 1-2.2 1.9-2.8 1.9-.6 0 0-.7 1.2-1.6 1.4-1 2.3-2.7 2.3-4.7.2-3.2.2-3.2.6-.4.3 1.8-.2 3.6-1.3 4.8zm57 .9c.5 2 .3 1.9-.8-.5-.7-1.7-1.6-4.1-2-5.5-.5-2-.3-1.9.8.5.7 1.6 1.6 4.1 2 5.5zm22.6-4.3c-1.1 1.7-1.1 1.7-.6 0 .3-1 .6-2.4.7-3 0-.9.2-.9.5 0 .3.7 0 2-.6 3zm-190.1 6.8c3.4 5.2 6.1 9.7 6.1 10 0 .3-3.9.5-8.8.5-8 0-8.8-.2-10.1-2.3-1.3-2.1-1.3-2.2.6-.5 1.5 1.4 3.7 1.8 9.6 1.8h7.7l-5.3-8.3c-6.8-10.6-6.9-10.7-6.4-10.7.3 0 3.2 4.3 6.6 9.5zm-117.8 2.9c2.8 2.5 4.8 4.6 4.5 4.6-.4 0-3-2.1-5.7-4.7-4.6-4.3-8-9-7.9-11 .1-.4.9.8 2 2.8 1.1 2 4.2 5.7 7.1 8.3zm101.2-2.4c1.6 2.7 2.6 5 2.4 5-.3 0-1.8-2.1-3.3-4.8-1.5-2.6-3.4-5.8-4.2-7.2l-1.4-2.5 1.8 2.2c1.1 1.3 3.2 4.5 4.7 7.3zm-313.9-5.9c2 1.2 3.6 2.3 3.6 2.5 0 .7-3.5-.9-5.2-2.4-1.7-1.4-1.8-1.1-1.8 5.6v7.1l4.8 1.5c2.6.8 3.9 1.5 2.9 1.5-1 .1-3.3-.6-5.2-1.3l-3.5-1.5v-7.5c0-4.2.2-7.6.4-7.6.3 0 2.1.9 4 2.1zm114.3.1c-.3.8-.6.5-.6-.6-.1-1.1.2-1.7.5-1.3.3.3.4 1.2.1 1.9zm26 0c-.3.8-.6.5-.6-.6-.1-1.1.2-1.7.5-1.3.3.3.4 1.2.1 1.9zm276.1.3c2 1.4 3.2 2.5 2.6 2.5-.6 0-2.4-1-3.8-2.1l-2.8-2.2.4 7.6c.1 4.1 0 7.3-.4 7-.9-.5-1.1-15.3-.2-15.3.3 0 2.2 1.1 4.2 2.5zm312.6.5c3.2 1.7 5.3 3 4.5 3-.8 0-3.3-1.1-5.6-2.5l-4.3-2.4v13.8l4.8 1.5c2.6.8 3.9 1.5 2.9 1.5-1 .1-3.3-.6-5.2-1.3l-3.5-1.5v-7.5c0-4.2.1-7.6.3-7.6.1 0 2.9 1.4 6.1 3zm23 1.1c-.9 1-2.2 1.9-2.8 1.9-.6 0 0-.7 1.2-1.6 1.2-.8 2.2-2.3 2.3-3.2 0-1.1.2-1.3.6-.4.3.7-.3 2.2-1.3 3.3zM580 718.5c0 .7-5.7 3.5-7.2 3.5-.7 0 .5-.9 2.7-1.9 4.8-2.3 4.5-2.2 4.5-1.6zm389 4.2c-1.1 1.7-1.1 1.7-.6 0 .3-1 .7-2.6.7-3.5.1-1.5.2-1.5.6 0 .2 1-.1 2.5-.7 3.5zM143.7 721c.3 1.1.2 1.2-.4.3-.6-.8-5-1.3-13.3-1.6l-12.5-.3 12.9.1c10.6 0 13 .3 13.3 1.5zm239 .2c-.3.8-.6.5-.6-.6-.1-1.1.2-1.7.5-1.3.3.3.4 1.2.1 1.9zm78.8 2.2c-2.6 3.4-8.7 8.6-10.1 8.6-.4 0 1.3-1.5 3.7-3.4 2.4-1.9 5.3-4.8 6.4-6.5 1.1-1.6 2.1-2.8 2.3-2.6.2.2-.8 1.9-2.3 3.9zm-280.7-2.7c-1 .2-2.8.2-4 0-1.3-.2-.5-.4 1.7-.4 2.2-.1 3.2.1 2.3.4zm85.6 2.4c1.4 1.7 2.6 3.8 2.5 4.7 0 1.1-.4.8-1-.8-1.8-4.4-4-6-8.1-6-2.8 0-4.6.7-6.3 2.5-1.4 1.3-2.5 2-2.5 1.5 0-2 5.4-5 9-5 3 0 4.4.6 6.4 3.1zm93.5 1.9c0 .9-.4.8-.9-.5-.5-1.1-.9-2.7-.9-3.5 0-.9.4-.8.9.5.5 1.1.9 2.7.9 3.5zm359.2-1.9c-.5 1.3-1 1.9-1 1.2-.1-1.5 1-4.5 1.5-4 .3.2 0 1.5-.5 2.8zm-547 .5c-1.2 1.5-2.1 3.4-2.1 4.4 0 1 .9 2.9 2.1 4.4 2.8 3.6 8.9 3.7 12.4.1 1.4-1.3 2.5-2 2.5-1.5 0 2-5.4 5-9 5-3 0-4.4-.6-6.4-3.1-1.4-1.7-2.6-3.9-2.6-4.8 0-1.7 3.5-7.1 4.6-7.1.3 0-.4 1.2-1.5 2.6zm14.8 1.8c-.2.2-1.3-.8-2.3-2.2l-1.9-2.7 2.4 2.2c1.2 1.2 2.1 2.4 1.8 2.7zm128.8-2.2c-.3.8-.6.5-.6-.6-.1-1.1.2-1.7.5-1.3.3.3.4 1.2.1 1.9zm24 0c-.3.8-.6.5-.6-.6-.1-1.1.2-1.7.5-1.3.3.3.4 1.2.1 1.9zm-238.8 2.7c-.6 1.8-1.3 3-1.5 2.8-.2-.2.1-1.8.7-3.6s1.3-3 1.5-2.8c.2.2-.1 1.8-.7 3.6zm119.6-2.4c.6.2-1.9.3-5.5.4-3.6 0-7.4-.4-8.5-.8-1.9-.8 11.8-.4 14 .4zm403.2-.9c-.3.3-1.2.4-1.9.1-.8-.3-.5-.6.6-.6 1.1-.1 1.7.2 1.3.5zm32.5 3.6c-1.1 1.8-3.6 4.1-5.4 5.1l-3.3 1.9 2.5-2.1c1.4-1.1 2.8-2.1 3.1-2.1.3 0 1.4-1.6 2.4-3.5 1.1-1.9 2.1-3.2 2.3-3 .2.2-.5 1.9-1.6 3.7zm128.8 2.3v6.5l-13.7-.2-13.8-.2 13.3-.3 13.2-.4v-5.4c0-5.1-.1-5.4-2.7-5.8-2.6-.4-2.6-.4.5-.6l3.2-.1v6.5zM155.7 734c8.3 0 7.8.5 5.8-6.7-.3-1 .1-.5.9 1.2 3 6 2.5 6.5-6.7 6.5h-8.3l-1.7-5.3c-2.3-7.4-2-8.5.5-1.5l2 5.8h7.5zm226-8.8c-.3.8-.6.5-.6-.6-.1-1.1.2-1.7.5-1.3.3.3.4 1.2.1 1.9zm252.6-1.5c-1.8.2-4.8.2-6.5 0-1.8-.2-.4-.4 3.2-.4s5 .2 3.3.4zm311 0c-1.8.2-4.8.2-6.5 0-1.8-.2-.4-.4 3.2-.4s5 .2 3.3.4zm-829.8 6.2l-1.7 5.1h-8.4c-4.6 0-8.4-.3-8.4-.8 0-.4 3.7-.7 8.2-.7h8.2l1.5-4.7c.8-2.7 1.6-4.6 1.9-4.4.2.3-.4 2.7-1.3 5.5zm124.1-2.8c-.8 1.1-2.5 2.8-3.8 3.7-1.4 1-1 .2 1.2-2.1 4-4.2 4.8-4.7 2.6-1.6zm78.3 2.9c0 .9-.4.8-.9-.5-.5-1.1-.9-2.7-.9-3.5 0-.9.4-.8.9.5.5 1.1.9 2.7.9 3.5zm20.5-1.6c-.3 1.5-.8 2.5-1.1 2.3-.2-.3-.1-1.7.3-3.1.3-1.5.8-2.5 1.1-2.3.2.3.1 1.7-.3 3.1zm628.6-1.5c-1 2-6.2 6.1-7.6 6.1-.5 0 .8-1.1 2.7-2.5 2-1.3 3.9-3.1 4.2-4 .4-.8.9-1.5 1.2-1.5.3 0 .1.9-.5 1.9zm-250.3 3.7l-1.4 3.9-6.3.3c-6.1.3-8-.5-8-3.3.1-.6.5-.2 1.1.7.8 1.4 2.3 1.8 6.8 1.8h5.8l1.2-4.1c.7-2.3 1.4-3.9 1.7-3.7.2.3-.2 2.2-.9 4.4zm-356-1.4c-.3.8-.6.5-.6-.6-.1-1.1.2-1.7.5-1.3.3.3.4 1.2.1 1.9zm19.5 1.9l-.8 3.4h-8.9c-7.3 0-9-.3-9.1-1.5 0-.9.1-1 .3-.3.3.9 3 1.3 8.8 1.3h8.3l.7-3.6c.3-2 .9-3.4 1.1-3.1.3.3.1 2-.4 3.8zM259.5 735c2.5 0 4.4-.8 6-2.5 1.4-1.3 2.5-2 2.5-1.5 0 1.8-5.4 5-8.5 5-3.1 0-8.5-3.2-8.5-5 0-.5 1.1.2 2.5 1.5 1.6 1.7 3.5 2.5 6 2.5zm68-1c5.7 0 8.5-.4 8.8-1.3.3-.7.6-.5.6.5.1 1.6-1 1.8-9.4 1.8s-9.5-.2-9.4-1.8c0-1 .3-1.2.6-.5.3.9 3.1 1.3 8.8 1.3zm96-.5c2.2.8 3.1 1.4 2 1.4s-3.1-.6-4.5-1.4c-3.2-1.8-2.5-1.8 2.5 0zm26-.6c-.6.5-2.3 1.2-4 1.5-2.8.6-2.8.5.5-.8 4.3-1.8 4.6-1.8 3.5-.7zM230 734c-.8.5-2.4.9-3.5.9-1.6-.1-1.6-.2.5-.9 3.5-1.1 4.8-1.1 3 0zm348.7-.4c-.3.3-1.2.4-1.9.1-.8-.3-.5-.6.6-.6 1.1-.1 1.7.2 1.3.5zm41.3.4c2 .6 2.1.8.5.8-1.1 0-2.9-.3-4-.8-2.5-1.1.1-1.1 3.5 0zm26 0c-.8.5-2.4.9-3.5.9-1.6-.1-1.6-.2.5-.9 3.5-1.1 4.8-1.1 3 0zm311 0c-.8.5-2.4.9-3.5.9-1.6-.1-1.6-.2.5-.9 3.5-1.1 4.8-1.1 3 0zm-212.2.7c-2.1.2-5.7.2-8 0-2.4-.2-.7-.4 3.7-.4s6.3.2 4.3.4zm119 0c-2.1.2-5.7.2-8 0-2.4-.2-.7-.4 3.7-.4s6.3.2 4.3.4zm-643.5 1c-2.3.2-6.4.2-9 0-2.6-.2-.7-.3 4.2-.3 5 0 7.1.1 4.8.3zm218.5 0c-2.1.2-5.5.2-7.5 0-2.1-.2-.4-.4 3.7-.4 4.1 0 5.8.2 3.8.4zm197.5 0c-2.3.2-6.4.2-9 0-2.6-.2-.7-.3 4.2-.3 5 0 7.1.1 4.8.3zm311 0c-2.3.2-6.4.2-9 0-2.6-.2-.7-.3 4.2-.3 5 0 7.1.1 4.8.3zM346.5 765l6.9 7H308v22h-35.5l14.3 14.3 14.3 14.3-14.1 14-14.1 13.9 49.3.5 49.3.5-49.7.3c-27.4.1-49.8-.1-49.8-.5s6.3-7.1 14-14.8l14-14-14-14c-7.7-7.7-14-14.3-14-14.7 0-.5 7.9-.8 17.5-.8H307v-22h44.4l-5.9-6-5.9-6H202l-.2 22.2-.3 22.3-.2-21.5c-.2-11.8-.1-22 .1-22.7.4-1 14.5-1.3 69.3-1.3h68.9l6.9 7zm64.5-6.1c0 .6-.5 1.3-1.2 1.7-.7.4-.8.3-.4-.4.5-.9-1.3-1.2-6.3-1.2-6.8 0-7.1.1-8.6 3-.9 1.6-1.8 3-2.1 3-.5 0 1.3-3.8 2.9-5.8 1.1-1.4 15.7-1.7 15.7-.3zm63.8-.2c-18.5.3-20.8.5-20.8 2 0 .9-.3 1.4-.6 1-.4-.3-.4-1.3-.1-2.2.6-1.3 3.5-1.5 21.4-1.3l20.8.3-20.7.2zm198.1 3.3c2.7 4.9 2.1 5.4-.8.5-2-3.5-2.1-3.5-9-3.5h-6.9l3 5.5c1.6 3 2.7 5.5 2.5 5.5-.9 0-6.5-10.9-5.9-11.5.3-.3 3.8-.5 7.7-.5h7.1l2.3 4zm123.1-3.3l-69.5.3-5.8 5.8-5.8 5.7 22.3.5 22.3.6-22.7.2c-12.6.1-22.8-.1-22.8-.5s2.8-3.6 6.2-7l6.2-6.3 69.6.2 69.5.3-69.5.2zm-388.4 6.5c-.9 1.2-1.6 1.9-1.6 1.5 0-1.1 2.4-4.7 2.8-4.2.2.2-.3 1.4-1.2 2.7zm45.1 0c-.3.8-.6.5-.6-.6-.1-1.1.2-1.7.5-1.3.3.3.4 1.2.1 1.9zm-61.7 2.7c-.5 1.1-1 2.2-1 2.5 0 .3 3 .6 6.6.6 5.2 0 7-.4 8.1-1.8 1.3-1.5 1.3-1.5.3.5-1 2.1-1.8 2.3-9.1 2.3h-8l1.6-3c.9-1.7 1.8-3 2.1-3 .2 0 0 .9-.6 1.9zm60.7 1.3c-.3.8-.6.5-.6-.6-.1-1.1.2-1.7.5-1.3.3.3.4 1.2.1 1.9zm226.3 2c0 .4-3.7.7-8.2.6l-8.3-.2 7.8-.3c7.6-.4 7.7-.4 6.7-2.6-1.1-2.1-1.1-2.1.4-.3.9 1.1 1.6 2.3 1.6 2.8zm-193.7.5c-6.2.2-16.5.2-23 0-6.5-.1-1.4-.3 11.2-.3 12.7 0 18 .2 11.8.3zm566.7 14.8c8.5 8.5 15.2 15.5 14.9 15.5-.3 0-7.3-6.8-15.5-15-17.4-17.6-15.8-16-15.3-16 .2 0 7.4 7 15.9 15.5zm-614.2-1.8l-9.8.4V818h9.5c9.5 0 9.5 0 9.5-2.5 0-2.4-.2-2.5-6.5-2.5H433v-9l6.3.2 6.2.2-5.7.3-5.8.4v6.9h13v7h-21v-35l10.3.2 10.2.2-9.7.3zm31 0c-1.5.2-4.2.2-6 0-1.8-.2-.6-.4 2.7-.4 3.3 0 4.8.2 3.3.4zm36.2 2.8v3.5h-10v28h-8v-28h-10v-7h28v3.5zm43.8-2.8c-1.6.2-4 .2-5.5 0-1.6-.2-.3-.4 2.7-.4s4.3.2 2.8.4zm33.1 1.9c1.7 1.4 3.1 3 3.1 3.4 0 .5-1.3-.5-2.9-2.1-2.3-2.3-3.8-2.9-7.1-2.9-5.2 0-7.6 1.3-10 5.3-1.1 1.8-2 2.6-2 1.8 0-.7 1.5-2.8 3.4-4.7 4.5-4.5 10.8-4.8 15.5-.8zm24.9 12.1l-.2 14.8-.3-14.2c-.3-12.4-.6-14.2-2.1-14.6-1.2-.3-1.1-.5.6-.6 2.2-.1 2.2-.1 2 14.6zm26.5-14c-1.3.2-3.5.2-5 0-1.6-.2-.5-.4 2.2-.4 2.8 0 4 .2 2.8.4zM456.4 786c-1.2.5-2.9 1.9-3.8 3.2-.9 1.2-1.6 1.8-1.6 1.3 0-1.5 4.3-5.5 5.9-5.4 1.1 0 .9.3-.5.9zm16.6 2.5c0 3.7-.9 4.1-4.5 2.4-1.6-.7-1.4-.8.9-.4 2.7.6 2.8.4 2.4-2.5-.3-1.6-.1-3 .4-3 .4 0 .8 1.6.8 3.5zm64.8-2.4c-1 .5-1.8 2.1-1.8 3.5 0 2.1.3 2.3 1.9 1.4 3-1.5 3.9-1.1 1.1.5-3.5 2-4 1.9-4-1.3 0-2.9 1.6-5.2 3.5-5.2.5 0 .2.5-.7 1.1zm16.3.6c1.3 1.7 1.3 1.7-.6.3-1.1-.8-2.2-1.6-2.4-1.7-.2-.2 0-.3.6-.3s1.7.8 2.4 1.7zm46.2-1c-.7.2-1.9.2-2.5 0-.7-.3-.2-.5 1.2-.5s1.9.2 1.3.5zm21.3 1.8c-3.7 3.5-3.5 7.8.6 11.6 1.8 1.6 2.7 2.9 2.1 2.9-2.1 0-6.3-6.1-6.3-9.1 0-2.7 3.7-7.9 5.6-7.9.4 0-.5 1.1-2 2.5zm17.3.1c1.2 1.5 2.1 3.8 2 5.3-.1 2.2-.2 2.1-.9-.9-.5-1.9-1.8-4.3-3-5.2-1.2-1-1.8-1.8-1.2-1.8.6 0 2 1.2 3.1 2.6zm-44.6-.9c-2.8.5-3.2 4.9-.5 5.6 1.3.4 1.1.5-.5.6-1.9.1-2.3-.4-2.3-2.7 0-3.4.7-4.2 3.4-4.1 1.9.2 1.9.2-.1.6zm-37.3 7.2c0 3.2-.6 2.4-1.4-1.9-.4-2.5-.3-3.1.4-2 .5.8 1 2.6 1 3.9zm19.1-3.2c1.2 1.6 1.2 1.7-.1.7-.8-.6-2.2-1.4-3-1.7-1.3-.5-1.2-.6.1-.6.9-.1 2.3.7 3 1.6zm56.9-.3c1.6 2.1.9 5.6-1.5 7.2-4.1 2.7-8.8-3.9-5.3-7.4 1.6-1.6 5.3-1.5 6.8.2zm-192.7.3l-6.3.4v6.8l5.8.4 5.7.3-6.2.2-6.3.2v-3.8c0-2.1.3-4.2.7-4.5.3-.4 3.4-.6 6.7-.5l6.1.2-6.2.3zm20.9.4c-3.3 1.3-2.4 3.9 2.3 6.6 2.2 1.2 3.6 2.3 3 2.3-1.7 0-7.5-3.9-8.1-5.5-.8-1.9 1.3-4.5 3.5-4.4 1 0 .8.3-.7 1zm87.5 1.5c.2 1.3.1 1.5-.4.4-.3-.8-1.1-1.9-1.7-2.3-.7-.6-.6-.7.4-.4.8.2 1.6 1.2 1.7 2.3zm21.4.1c-1.2 2-1.4 1.4-.5-1.2.4-.9.9-1.4 1.1-1.1.3.2 0 1.3-.6 2.3zm28.7 9.5l-.2 11.3-.3-10.5c-.3-6.8-.8-10.7-1.6-11.2s-.7-.8.6-.8c1.5 0 1.7 1.1 1.5 11.2zm-148.1-7c-.3.7-.5.2-.5-1.2s.2-1.9.5-1.3c.2.7.2 1.9 0 2.5zm134-1c-.3.8-.6.5-.6-.6-.1-1.1.2-1.7.5-1.3.3.3.4 1.2.1 1.9zm-7 2.5c-.3 1-.5.4-.5-1.2 0-1.7.2-2.4.5-1.8.2.7.2 2.1 0 3zm217.3-3c0 .3-6.3 6.7-14 14.1-7.7 7.4-14 14-14 14.6 0 .6 6.3 7.4 14 15 7.7 7.7 14 14.1 14 14.3 0 .2-22.5.3-50 .3h-50v-22h-39.5l-60.9 61c-33.6 33.6-61.2 61-61.5 61-.4 0-28.1-27.5-61.6-61l-61-61-20-.2-20-.3 20-.2 20-.3 61.2 61.2 61.3 61.3 61.3-61.3 61.2-61.2H696v22h97.5l-13.8-13.8c-7.5-7.5-13.7-14.2-13.7-14.9 0-.6 6.3-7.2 14-14.7l14.1-13.6-17.8-.3-17.8-.2 18.3-.3c10-.1 18.2.1 18.2.5zm-233.3 3.5c-.3.7-.5.2-.5-1.2s.2-1.9.5-1.3c.2.7.2 1.9 0 2.5zm7 8.5c-.2 2.1-.4.4-.4-3.7 0-4.1.2-5.8.4-3.8.2 2.1.2 5.5 0 7.5zm17-2c-.2 1.6-.4.3-.4-2.7s.2-4.3.4-2.8c.2 1.6.2 4 0 5.5zm52.3-5.2l-2.3 2.5 2.6 2.1c1.5 1.1 2.7 2.4 2.7 2.9s-1-.1-2.3-1.4c-1.3-1.3-3-2.5-3.8-2.8-1-.3-.6-1.2 1.6-3.1 3.8-3.3 4.5-3.4 1.5-.2zm-178 5.6c3.3 1.7 6 3.6 6 4.2 0 .6-.8.3-1.7-.5-1-.9-3.4-2.3-5.3-3.3-4.1-2-8-5.4-8-6.9 0-.6.7-.1 1.5 1.1.9 1.2 4.2 3.6 7.5 5.4zm96-6.1c0 .5-2.7 3.8-6.1 7.4l-6 6.5 6.3.4 6.3.3-7.3.2c-8.2.2-8.3.1-1.6-6 2.5-2.3 5.2-5.4 6.2-7 1.7-3 2.2-3.4 2.2-1.8zm-14.8 8.3c-4.5 4.6-7.2 8.1-7.2 9.4 0 2.2.4 2.2 11.3 2.6l11.2.3-11.7.2-11.8.2v-2.7c0-2.1 1.8-4.6 7.2-10 4-4 7.5-7.3 7.7-7.3.3 0-2.7 3.3-6.7 7.3zm-69.8-3.4c-.2.3-1.2-.3-2.2-1.3-1.6-1.7-1.6-1.8.5-.5 1.2.7 2 1.5 1.7 1.8zm149.1 1.1c-1 1.1-2.1 3.7-2.5 5.8-.7 3.6-.8 3.6-.9.6-.1-2.8 3-8.4 4.6-8.4.3 0-.2.9-1.2 2zm12.8 1.8c2.8 2.5 1.6 8.3-1.7 8.2-.6 0-.3-.5.7-1.1 2.6-1.5 2.1-5.4-1-7.9-1.6-1.2-2.1-1.8-1.3-1.4.8.4 2.3 1.4 3.3 2.2zm-159.5 1.8c-.3 1.4-.5 1.2-1-.9-.3-1.9-.2-2.5.4-1.9.6.6.8 1.8.6 2.8zm152.9-1.8c-2.2 2.4-2.2 5.8.1 7.1.9.6 1.2 1.1.7 1.1-1.7 0-3.5-2.2-3.5-4.4 0-1.8 2.6-5.6 3.8-5.6.3 0-.2.8-1.1 1.8zm-61.6 9.6c1.5 2 1.7 2.6.5 1.7-2.4-2-4.6-6.5-4.5-9.3.1-1.7.3-1.4.9 1.1.4 1.8 1.8 4.7 3.1 6.5zm12.6-6.2c-.3.7-.5.2-.5-1.2s.2-1.9.5-1.3c.2.7.2 1.9 0 2.5zm6.3 2.8c-1.3 3.1-5.4 7-7.4 7-.6 0 .3-.9 2.1-1.9 1.8-1.1 3.7-3.5 4.4-5.5.7-2 1.5-3.4 1.7-3.1.3.2-.1 1.8-.8 3.5zm57.7-.8c-.3.7-.5.2-.5-1.2s.2-1.9.5-1.3c.2.7.2 1.9 0 2.5zm-187.7.3c2.9 1.7 1.9 2-1.2.4-1.9-1-2-.9-1.6 2.4.2 2 0 3.3-.4 3.1-1-.7-1.1-7.4 0-7.4.4.1 1.8.7 3.2 1.5zm10.6 1.1c-1.1.8-3.4 1.3-5 1.3-2.8-.1-2.7-.2.9-.9 2.1-.4 4.1-1.3 4.3-1.9.2-.7.7-.9 1.1-.6.3.4-.3 1.3-1.3 2.1zm9.4-1c0 2.2-5.5 7.4-7.7 7.4-1.1-.1-.5-.6 1.5-1.5 2.1-.9 3.8-2.6 4.5-4.5 1.3-3.4 1.7-3.7 1.7-1.4zm98.8 1.4c1 0 2.3-.5 3-1.2.9-.9 1.2-.9 1.2 0 0 1.7-4.8 2.6-6.5 1.2-.8-.7-1.5-1.8-1.5-2.4 0-.6.5-.3 1.1.6.5 1 1.8 1.8 2.7 1.8zm-58.7-.3c1.1 1.5 1.1 1.6-.1.5-1.9-1.7-4.5-1.5-6.1.4-1.1 1.3-1 1.9.1 3.7 1.2 2 1.2 2.1-.3.8-2.1-1.7-2.1-3 0-5.3 2-2.3 4.7-2.3 6.4-.1zM602 818h9.9l.4-2.8c.4-2.5.4-2.5.6.5l.1 3.3h-22l.1-3.3c.2-3 .2-3 .6-.5l.4 2.8h9.9zm21.5-.2c1.1.6 1.5 1.2.8 1.2s-2.2-1-3.5-2.3c-1.3-1.2-1.7-1.7-.8-1.1.8.6 2.4 1.6 3.5 2.2zm13 .2c-.3.5-1.4 1-2.3.9-1.4 0-1.3-.2.3-.9 2.7-1.1 2.7-1.1 2 0zm-180.8.6c-.3.3-1.2.4-1.9.1-.8-.3-.5-.6.6-.6 1.1-.1 1.7.2 1.3.5zm6.1 1.1c-1 .2-2.6.2-3.5 0-1-.3-.2-.5 1.7-.5s2.7.2 1.8.5zm112.5 0c-.7.2-1.9.2-2.5 0-.7-.3-.2-.5 1.2-.5s1.9.2 1.3.5zm56 0c-.7.2-1.9.2-2.5 0-.7-.3-.2-.5 1.2-.5s1.9.2 1.3.5zm-159.8 10l-24.9.3 24.9 25.3 25 25.2-25.2-25c-13.9-13.7-25.3-25.3-25.3-25.7 0-.5 11.4-.7 25.3-.6l25.2.3-25 .2z"/><path d="M477 787.5c0 2.3.3 2.5 5 2.5h5v28h6v-28h5c4.7 0 5-.2 5-2.5V785h-26v2.5zM626.7 790.6c-1.4 1.4-.7 5.3 1.2 6.3 2.6 1.4 5.4-.8 4.9-4-.2-1.7-1-2.5-2.8-2.7-1.4-.2-2.9 0-3.3.4zM0 744v58.5l29.2-29.3L58.5 744l-29.3-29.2L0 685.6V744z"/></svg>